<svg width="19" height="23" viewBox="0 0 19 23" fill="none" xmlns="http://www.w3.org/2000/svg">
<path d="M15.3384 12.3007C15.3492 11.466 15.5715 10.6477 15.9847 9.9217C16.3979 9.19574 16.9885 8.58581 17.7016 8.14863C17.2486 7.50347 16.651 6.97253 15.9562 6.59798C15.2614 6.22343 14.4887 6.01558 13.6992 5.99095C12.0153 5.81469 10.3828 6.99578 9.52465 6.99578C8.64993 6.99578 7.32873 6.00845 5.90602 6.03764C4.98577 6.06729 4.08891 6.33414 3.30283 6.8122C2.51676 7.29026 1.86826 7.96322 1.42054 8.76551C-0.518886 12.1139 0.927753 17.035 2.78556 19.7416C3.71507 21.0669 4.80139 22.5474 6.22282 22.4949C7.61377 22.4374 8.13327 21.6104 9.81227 21.6104C11.4757 21.6104 11.9631 22.4949 13.4133 22.4615C14.9059 22.4374 15.8463 21.1303 16.7432 19.7924C17.411 18.848 17.9249 17.8043 18.2659 16.6999C17.3987 16.3341 16.6587 15.722 16.1382 14.9397C15.6176 14.1574 15.3394 13.2396 15.3384 12.3007V12.3007Z" fill="white"/>
<path d="M12.5991 4.2109C13.4129 3.23669 13.8139 1.98451 13.7168 0.720276C12.4735 0.850496 11.325 1.44306 10.5002 2.37989C10.0969 2.83755 9.78805 3.36999 9.59125 3.94676C9.39446 4.52353 9.31358 5.13332 9.35326 5.74128C9.97514 5.74766 10.5904 5.61325 11.1526 5.34816C11.7148 5.08307 12.2094 4.69422 12.5991 4.2109Z" fill="white"/>
</svg>
