<svg width="56" height="81" viewBox="0 0 56 81" fill="none" xmlns="http://www.w3.org/2000/svg">
<g id="Clip path group">
<g id="Group">
<g id="Group_2">
<g id="Group_3">
<path id="Vector" d="M97.5751 57.3074C97.3393 55.2567 95.8462 53.4455 94.5664 51.9299C93.0247 50.0926 91.2135 48.5059 89.2002 47.2036C95.3597 33.3091 90.1357 16.4396 79.4258 6.08509C75.8371 2.61239 71.6683 -0.145546 67.1179 -2.04281C67.1291 -2.05403 67.1403 -2.06526 67.1403 -2.09146C67.3162 -2.96712 67.4846 -3.84653 67.6493 -4.72219C68.0647 -4.63986 68.4651 -4.54628 68.8804 -4.46021C70.0068 -4.23568 71.1444 -4.02239 72.2671 -3.82032C73.2026 -3.65567 74.4113 -3.21782 75.3581 -3.38247C76.5892 -3.59577 76.6491 -5.65768 76.7801 -6.60444C77.2553 -10.0622 76.2936 -13.7706 73.2625 -15.7278C72.398 -16.2853 71.4513 -16.7569 70.4559 -17.1386C70.658 -17.9693 70.4896 -18.8787 70.0068 -19.5897C69.4754 -20.3718 68.6559 -20.8582 67.7091 -20.9742C65.898 -21.1988 64.214 -19.9302 63.8136 -18.1676C62.9492 -18.1078 62.096 -17.9543 61.2652 -17.7074C57.1189 -16.4762 53.8483 -12.7191 54.23 -8.2435C54.23 -8.22105 54.2412 -8.20985 54.2412 -8.18366C54.2412 -7.88803 54.3946 -7.61486 54.7726 -7.53253C56.6212 -7.14335 58.4811 -6.71673 60.3297 -6.30135C60.2361 -5.60158 60.1276 -4.90181 60.034 -4.20577C59.3342 -4.34797 58.6345 -4.49014 57.9272 -4.59492C54.4433 -5.0814 50.9631 -5.1263 47.5016 -4.83068C46.117 -10.4214 38.8423 -10.7283 34.3518 -9.35495C31.8895 -8.59529 29.1166 -7.34164 27.3278 -5.43315C25.468 -3.46854 25.4567 -0.800421 25.6813 1.74423C23.204 3.25979 20.9886 5.07474 19.0727 7.18156C18.5525 6.68385 17.9837 6.24602 17.4149 5.81941C17.0482 5.55747 16.6814 5.29928 16.2997 5.04856C16.4644 4.83526 16.6328 4.63316 16.7975 4.41986C17.4486 3.58911 18.0885 2.76209 18.7396 1.93133C19.286 1.24278 20.2439 0.404571 20.4797 -0.47483C20.6705 -1.21951 20.2065 -1.7659 19.6265 -2.14385C18.7621 -2.72388 17.8041 -3.21034 16.8424 -3.62572C13.2537 -5.21238 9.55643 -5.08142 6.34568 -2.70143C6.26335 -2.64155 6.19225 -2.58167 6.10993 -2.51057C4.85257 -3.48353 3.05261 -3.71926 1.69047 -2.81741C0.290912 -1.90433 -0.405119 -0.126841 0.246012 1.45982C0.552867 2.20451 1.07675 2.78831 1.75033 3.17749C1.39483 4.11303 1.14787 5.1084 1.08799 6.13749C0.957017 8.11707 1.47717 10.1528 2.67465 11.7507C3.89459 13.3972 5.66086 14.475 7.38973 15.5078C7.88743 15.8034 8.34773 15.4479 8.45625 15.0213C9.54521 13.6367 10.6491 12.2484 11.7381 10.8526C11.7718 10.8862 11.8092 10.9349 11.8578 10.9574C12.4154 11.2305 12.973 11.5262 13.4931 11.8442C13.7663 12.0089 14.0245 12.1885 14.2753 12.3644C14.4062 12.4467 14.5372 12.5403 14.6532 12.6264C14.7243 12.675 14.7842 12.7199 14.844 12.7685C14.8553 12.7798 14.8927 12.8022 14.9264 12.8284C14.9376 12.8396 14.9488 12.8397 14.9601 12.8509C14.4287 13.7977 13.931 14.7818 13.4894 15.7997C10.1851 23.5571 9.67616 32.4783 11.3115 40.6998C12.8981 48.708 16.8424 56.2783 23.0169 61.6895C25.0077 63.4295 27.1407 64.8628 29.4009 66.0116C28.6675 68.0735 28.0987 70.1803 27.717 72.3246C27.5261 73.4622 27.3727 74.611 27.2904 75.7711C27.2081 76.7066 27.1257 77.702 27.3952 78.6263C27.9415 80.5348 29.9061 81.1148 31.6013 80.2953C33.4387 79.4084 34.8345 77.4288 35.9834 75.8048C37.454 73.7316 38.5168 71.4115 39.8677 69.2673C41.6452 69.5142 43.4564 69.6452 45.305 69.6452C58.5971 69.6826 73.6629 65.9966 83.0818 56.1997C83.1043 56.2222 83.1192 56.2596 83.1529 56.282C84.893 57.6105 86.7903 58.7332 88.8035 59.6238C90.5923 60.4171 92.8301 61.4724 94.8321 61.1768C96.7368 60.9223 97.7884 59.1335 97.5751 57.3074ZM66.0177 -19.077C66.1487 -19.1967 66.4555 -19.3614 66.6352 -19.4212C66.7063 -19.4437 66.7886 -19.4699 66.8709 -19.4811C66.8709 -19.4811 67.0131 -19.5036 67.0131 -19.5148C67.1778 -19.526 67.3462 -19.526 67.4996 -19.5148C67.522 -19.5148 67.5333 -19.5148 67.5333 -19.5148C67.5557 -19.5036 67.5931 -19.5036 67.6156 -19.5036C67.6979 -19.4812 67.769 -19.4699 67.8401 -19.4437C67.8888 -19.4325 68.016 -19.3951 68.016 -19.3838C68.0272 -19.3838 68.0384 -19.3726 68.0759 -19.3614C68.1245 -19.3389 68.1694 -19.3127 68.2181 -19.2903C68.4089 -19.1855 68.6335 -18.9834 68.727 -18.8412C68.7981 -18.7215 68.8804 -18.6055 68.9403 -18.4857C68.9403 -18.4633 68.9777 -18.366 68.9889 -18.3435C69.0002 -18.2724 69.0226 -18.2013 69.0376 -18.119C69.0488 -18.0965 69.06 -17.9768 69.06 -17.9768C69.0713 -17.9169 69.0713 -17.857 69.0713 -17.8009C69.0713 -17.6961 69.0713 -17.6475 69.06 -17.6101C67.8626 -17.9543 66.6202 -18.1564 65.3741 -18.1901C65.4975 -18.5194 65.7108 -18.7926 66.0177 -19.077ZM55.7119 -8.82729C55.7119 -12.1091 57.9272 -14.9157 60.9958 -16.0533C64.4797 -17.3444 68.4351 -16.6334 71.6571 -14.9382C73.139 -14.1673 74.3589 -13.127 74.8791 -11.5029C75.3169 -10.1296 75.4965 -8.599 75.3656 -7.16576C75.3169 -6.53708 75.1897 -5.90842 75.0475 -5.30593C75.0138 -5.19741 74.9651 -4.74836 74.8828 -4.65481C74.8828 -4.73713 74.4936 -4.92798 74.4787 -4.92798C74.2317 -5.04772 73.7452 -5.04775 73.472 -5.09265C71.6122 -5.41073 69.7411 -5.78121 67.8813 -6.17039C63.8136 -7.01611 59.7758 -7.95163 55.7119 -8.82729ZM66.2085 -5.02527C66.0551 -4.20949 65.9017 -3.38998 65.7333 -2.56297C64.3487 -3.08312 62.9267 -3.53593 61.4822 -3.87646C61.5758 -4.57624 61.6731 -5.27601 61.7779 -5.97204C63.2598 -5.65396 64.7379 -5.3471 66.2085 -5.02527ZM28.3719 -4.38538C29.8986 -6.0207 32.3161 -7.13212 34.4117 -7.80944C38.0715 -9.01815 44.6127 -9.29129 45.9861 -4.68098C45.2264 -4.59866 44.4817 -4.47892 43.7221 -4.36291C43.0597 -5.63149 41.7799 -6.49592 40.4065 -6.8402C38.5804 -7.30048 36.6869 -6.88886 34.9318 -6.34251C33.2628 -5.82236 31.4965 -5.20488 30.2392 -3.9363C29.2213 -2.88102 28.6151 -1.42535 28.8172 0.0191111C28.2259 0.303513 27.6571 0.610392 27.0883 0.932215C26.9611 -0.961304 27.021 -2.9297 28.3719 -4.38538ZM42.1354 -4.11222C39.0444 -3.52096 35.9871 -2.67897 33.0121 -1.62369C32.0766 -1.29064 31.1635 -0.935112 30.2504 -0.568383C30.1307 -3.11677 33.5435 -4.37041 35.568 -4.98786C37.6823 -5.63151 40.6685 -6.03193 42.1354 -4.11222ZM2.24055 1.76296C2.20687 1.72928 2.13578 1.66938 2.10959 1.64318C2.04971 1.59454 2.00105 1.53844 1.95615 1.48979C1.94492 1.46734 1.9337 1.45611 1.91873 1.44114C1.89628 1.40372 1.87009 1.37004 1.84763 1.34759C1.78776 1.26526 1.74286 1.1829 1.69422 1.08561C1.67176 1.05193 1.64555 1.01453 1.63433 0.965881C1.6231 0.965881 1.62311 0.954644 1.62311 0.954644C1.60066 0.883543 1.57447 0.801215 1.55201 0.718888C1.51833 0.636561 1.50335 0.554221 1.49213 0.471894C1.49213 0.449442 1.46967 0.281066 1.46967 0.258613C1.46967 0.187513 1.48091 0.116386 1.48091 0.0452859C1.48091 -0.0145882 1.48091 -0.03703 1.48091 -0.03703C1.49214 -0.0744513 1.49214 -0.0969041 1.50336 -0.130583C1.51459 -0.224137 1.55201 -0.332627 1.57446 -0.426181C1.58569 -0.45986 1.60815 -0.508533 1.62311 -0.545954C1.62311 -0.557181 1.62311 -0.557192 1.62311 -0.557192C1.70544 -0.721845 1.78777 -0.875266 1.90752 -1.01747C1.90752 -1.01747 2.02726 -1.17087 2.03848 -1.1821C2.08713 -1.24197 2.14327 -1.2869 2.20314 -1.34678C2.21437 -1.358 2.36779 -1.47774 2.36779 -1.47774C2.43889 -1.53762 2.52121 -1.58253 2.59231 -1.63118C2.82807 -1.76216 3.22099 -1.87814 3.4792 -1.89311C4.02555 -1.92679 4.53449 -1.78833 4.96109 -1.51515C3.91703 -0.542199 3.03014 0.591663 2.35656 1.84902C2.32288 1.82282 2.27423 1.79664 2.24055 1.76296ZM7.52072 13.8575C5.0322 12.3157 2.82808 10.5158 2.5811 7.35368C2.31915 4.2028 3.99188 1.2989 6.27833 -0.748044C7.48703 -1.82578 8.93148 -2.71266 10.5181 -3.08313C12.2021 -3.48728 13.9197 -3.17669 15.5064 -2.57421C16.2773 -2.2898 17.022 -1.92305 17.733 -1.5189C18.0398 -1.35425 18.5039 -1.18583 18.7396 -0.938851C18.7621 -0.938851 19.0016 -0.807909 19.0016 -0.785456C19.024 -0.691903 18.4926 -0.111863 18.3841 0.0191111C17.2353 1.4748 16.0864 2.93422 14.9376 4.40113C12.4641 7.55575 9.99801 10.7066 7.52072 13.8575ZM12.6399 9.71124C13.553 8.55118 14.4624 7.3911 15.3754 6.22729C15.802 6.48924 16.2174 6.78488 16.6328 7.08051C16.7039 7.14039 16.7862 7.18531 16.8573 7.24519C16.891 7.26764 16.9172 7.29383 16.9509 7.3275C16.9509 7.3275 16.9509 7.3275 16.9621 7.3275C17.0931 7.43228 17.2353 7.5408 17.3663 7.64558C17.602 7.84765 17.8415 8.04974 18.066 8.26304C18.0773 8.27426 18.0885 8.27427 18.0885 8.27427C17.2241 9.32956 16.4419 10.4409 15.7085 11.6047C14.7468 10.8825 13.7289 10.2314 12.6399 9.71124ZM34.9243 74.7682C34.262 75.7262 33.5135 76.628 32.7464 77.5037C32.0466 78.2746 31.0625 79.3149 29.9136 79.2213C28.7872 79.1165 28.6825 77.8592 28.7049 76.9573C28.7274 75.7598 28.8696 74.5661 29.0492 73.3799C29.4047 71.0934 29.9847 68.8556 30.7444 66.674C33.1506 67.7517 35.684 68.5338 38.3035 69.0203C37.1621 70.9325 36.1892 72.9345 34.9243 74.7682ZM52.183 67.8041C44.0215 68.6573 35.669 68.2307 28.4804 63.8823C21.8718 59.8895 16.9771 53.4942 14.3838 46.2569C11.3152 37.7286 11.0084 27.9317 13.7813 19.2836C16.3858 11.1557 21.9541 4.86519 29.6666 1.25403C43.9167 -4.92797 60.9172 -5.91217 74.0072 3.48058C86.0905 12.1511 93.8479 29.0431 89.0168 43.6861C83.8003 59.4779 67.5108 66.1912 52.183 67.8041ZM95.9435 58.7294C95.4945 59.7959 94.3569 59.867 93.3614 59.6649C92.2463 59.4404 91.1573 59.025 90.1283 58.6096C87.9616 57.734 85.9483 56.5365 84.0885 55.137C85.5928 53.4193 86.9662 51.537 88.1038 49.4489C88.2684 49.1533 88.4106 48.8577 88.564 48.562C90.4613 49.8044 92.1527 51.3088 93.5972 53.0526C94.7573 54.4521 96.793 56.7648 95.9435 58.7294Z" fill="#3E0A77"/>
<path id="Vector_2" d="M38.2996 69.0239C37.162 70.9324 36.1928 72.9344 34.9242 74.7681C34.2619 75.7261 33.5134 76.6279 32.7463 77.5036C32.0465 78.2745 31.0623 79.3148 29.9135 79.2212C28.7871 79.1164 28.6824 77.8591 28.7048 76.9572C28.7273 75.7597 28.8695 74.566 29.0491 73.3798C29.4046 71.0933 29.9846 68.8555 30.7443 66.6739C33.1467 67.7553 35.6801 68.5374 38.2996 69.0239Z" fill="#3E0A77"/>
</g>
</g>
<g id="Group_4">
<path id="Vector_3" d="M60.202 37.4554C59.8839 38.1065 59.4574 38.6978 58.9447 39.1842C56.7892 41.3172 53.2454 42.2528 50.3789 41.1039C49.8101 40.8794 49.2525 40.5464 48.7548 40.1572C47.0372 38.795 45.8772 36.6021 46.5283 34.4467C46.9549 33.0247 48.3544 31.9582 49.8588 32.3399C50.6521 32.5307 51.2434 33.0621 51.8833 33.5373C52.1078 33.6907 52.3435 33.8554 52.5943 33.9752C53.1032 33.9752 53.6121 33.8105 53.9938 33.4288C54.5851 32.8488 54.8246 31.9731 55.3335 31.322C56.4487 29.8775 58.3908 29.8513 59.6445 31.1686C61.291 32.9049 61.2311 35.4421 60.202 37.4554Z" fill="#3E0A77"/>
<path id="Vector_4" d="M83.7625 30.7721C82.9691 17.1844 73.2209 6.68768 60.6398 2.44785C46.9212 -2.17369 30.9423 1.61711 22.283 13.6406C18.7654 19.6804 16.7521 26.1842 17.5791 33.2231C18.3612 39.8093 20.7188 46.1597 24.8164 51.4061C28.7831 56.5104 34.2578 60.4583 40.4997 62.2583C47.1681 64.178 54.3942 63.6429 60.9093 61.3939C67.4131 59.1299 73.5951 55.152 77.9434 49.7746C82.2955 44.3859 84.1666 37.6576 83.7625 30.7721ZM79.2981 45.168C76.0986 50.9234 70.6014 55.3204 64.7524 58.1981C53.0358 63.9423 38.797 63.2201 29.0974 53.9583C23.922 49.0187 20.8048 42.5972 19.4539 35.6219C18.7803 32.1267 18.612 28.5006 19.3005 24.983C20.034 21.2034 21.6468 17.7083 23.5665 14.3927C30.83 4.31145 44.0585 0.116519 55.9996 2.70233C67.8472 5.27318 78.7555 13.5882 81.5621 25.7913C83.0402 32.1941 82.5201 39.3602 79.2981 45.168Z" fill="#3E0A77"/>
<path id="Vector_5" d="M40.1108 33.0957C39.5083 31.2845 37.8955 29.2713 35.74 29.9224C34.8045 30.1956 34.2955 31.0937 34.1646 32.018C33.9887 33.2753 34.4602 34.5402 34.8531 35.7002C35.16 36.6133 33.7267 36.9913 33.4311 36.1044C32.9821 34.8021 32.5293 33.4138 32.6864 32.018C32.8174 30.929 33.244 29.84 34.1084 29.1403C34.9841 28.4405 36.0993 28.2272 37.1994 28.3806C39.4372 28.7137 40.8705 30.6895 41.5478 32.7028C41.8509 33.6046 40.4177 33.9938 40.1108 33.0957Z" fill="#3E0A77"/>
<path id="Vector_6" d="M46.4349 8.46886C46.1729 7.92251 45.9259 7.35373 45.6527 6.81112C45.417 6.31342 45.0952 5.82693 44.5862 5.57995C44.0062 5.28432 43.2353 5.27309 42.7039 5.6735C42.2661 6.00655 42.0865 6.45562 42.1015 6.95332C42.079 7.06185 42.079 7.16662 42.1127 7.2714C42.1239 7.32004 42.1351 7.3537 42.1464 7.39112C42.1464 7.39112 42.1464 7.40237 42.1464 7.4136C42.1576 7.43605 42.1688 7.45102 42.1838 7.46225C42.5281 8.56243 42.9547 9.62895 43.4861 10.6506C43.748 11.1595 44.1035 11.6684 44.6237 11.9416C45.2261 12.2596 45.9633 12.2484 46.4947 11.8106C46.9438 11.4439 47.1346 10.8264 47.0748 10.2576C47.0186 9.6177 46.708 9.04889 46.4349 8.46886ZM45.5966 10.527C45.5966 10.5757 45.5742 10.6206 45.5742 10.6206C45.5629 10.643 45.5517 10.6543 45.5517 10.6692C45.5517 10.6692 45.5405 10.6692 45.5405 10.6805C45.518 10.6805 45.4918 10.6692 45.4694 10.6692C45.4582 10.6692 45.4582 10.6692 45.4469 10.6805C45.4357 10.6805 45.4357 10.6805 45.4357 10.6805C45.3047 10.6468 45.2823 10.6206 45.2112 10.5495C45.0914 10.4298 45.0203 10.3362 44.9156 10.1603C44.8108 9.98069 44.7135 9.79358 44.6199 9.60274C44.2045 8.76076 43.8603 7.8851 43.5759 6.98324C43.5759 6.96079 43.5759 6.93462 43.5646 6.91217V6.90093C43.5646 6.8897 43.5646 6.88969 43.5646 6.88969C43.5646 6.87846 43.5646 6.87845 43.5646 6.87845C43.5759 6.87845 43.5759 6.87845 43.5759 6.87845C43.5871 6.856 43.5983 6.85601 43.5983 6.84479C43.6208 6.84479 43.6208 6.84478 43.632 6.83355C43.6432 6.83355 43.6432 6.83355 43.6432 6.83355C43.6769 6.83355 43.763 6.84479 43.7854 6.84479C43.8228 6.85601 43.8678 6.86726 43.879 6.86726C43.9014 6.87849 43.9276 6.90094 43.9613 6.91591C43.9725 6.92714 43.9838 6.93835 43.995 6.94958C44.0885 7.0581 44.1372 7.09178 44.2307 7.28263C44.3243 7.44729 44.4066 7.61567 44.4927 7.78032C44.6835 8.20692 44.8706 8.62229 45.0727 9.03767C45.2486 9.41563 45.4619 9.79735 45.5704 10.1865C45.5929 10.2576 45.6041 10.3399 45.6041 10.3886C45.6078 10.4223 45.5966 10.5046 45.5966 10.527ZM45.5255 10.6955C45.5255 10.7067 45.5255 10.7067 45.5255 10.7067C45.5255 10.7067 45.5255 10.7067 45.5367 10.6955C45.5255 10.6955 45.5255 10.6955 45.5255 10.6955Z" fill="white"/>
<path id="Vector_7" d="M27.8516 37.5601C27.4848 37.111 26.8674 36.9202 26.2986 36.9801C25.6587 37.04 25.0899 37.3468 24.5211 37.62C23.9635 37.8819 23.4059 38.1289 22.8521 38.4021C22.3656 38.6378 21.8791 38.9597 21.6209 39.4686C21.3253 40.0486 21.3141 40.8195 21.7145 41.3509C22.0475 41.7887 22.4966 41.9684 22.9943 41.9534C23.0991 41.9758 23.2188 41.9758 23.3273 41.9422C23.3647 41.9309 23.3984 41.9197 23.4358 41.9047C23.4471 41.9047 23.4583 41.9047 23.4583 41.9047C23.4807 41.8935 23.492 41.8823 23.5182 41.871C24.6071 41.5268 25.6849 41.1002 26.6915 40.5688C27.2004 40.2956 27.7094 39.9513 27.9938 39.4312C28.3006 38.8287 28.2894 38.0952 27.8516 37.5601ZM26.7252 38.5218C26.7252 38.5443 26.714 38.5705 26.714 38.5929C26.714 38.6154 26.7139 38.6304 26.7252 38.6304C26.7027 38.7501 26.6765 38.7838 26.5942 38.8549C26.4745 38.9746 26.3809 39.0457 26.205 39.1505C26.0291 39.2553 25.8383 39.3526 25.6587 39.4461C24.8055 39.8615 23.9298 40.2058 23.0279 40.4902C23.0055 40.4902 22.9793 40.4902 22.9569 40.5014H22.9456C22.9344 40.5014 22.9344 40.5014 22.9344 40.5014C22.9344 40.4902 22.9344 40.4902 22.9232 40.4902C22.9119 40.479 22.9119 40.479 22.9007 40.4677C22.8895 40.4453 22.8895 40.4453 22.8895 40.4191C22.8895 40.3854 22.9007 40.2881 22.9007 40.2657C22.9007 40.232 22.9119 40.1946 22.9119 40.1833C22.9344 40.1609 22.9456 40.1235 22.9606 40.101L22.998 40.0636C23.1028 39.97 23.1514 39.9214 23.3311 39.8278C23.4957 39.7343 23.6641 39.652 23.84 39.5659C24.2554 39.3751 24.6707 39.1879 25.0973 38.9859C25.4641 38.81 25.842 38.5967 26.2349 38.4882C26.3173 38.4657 26.3884 38.4545 26.437 38.4545C26.4745 38.4545 26.568 38.4657 26.5905 38.4657H26.6017C26.6391 38.4769 26.684 38.4882 26.684 38.4882C26.6952 38.4994 26.7065 38.4994 26.7327 38.5106C26.7252 38.5069 26.7252 38.5069 26.7252 38.5218Z" fill="white"/>
<path id="Vector_8" d="M4.96464 -1.51891C3.92059 -0.545958 3.03369 0.587905 2.36011 1.84526C2.32269 1.82281 2.27778 1.79662 2.24036 1.76294C2.20668 1.72927 2.13559 1.66937 2.1094 1.64317C2.04952 1.59452 2.00086 1.53842 1.95595 1.48978C1.94473 1.46732 1.93351 1.4561 1.91854 1.44113C1.89609 1.40371 1.86989 1.37003 1.84744 1.34757C1.78757 1.26525 1.74267 1.18289 1.69402 1.0856C1.67157 1.05192 1.64536 1.01452 1.63414 0.965869C1.62291 0.965869 1.62292 0.954632 1.62292 0.954632C1.60047 0.883531 1.57427 0.801202 1.55182 0.718875C1.51814 0.636549 1.50316 0.554209 1.49193 0.471882C1.49193 0.449429 1.46948 0.281053 1.46948 0.258601C1.46948 0.1875 1.48072 0.116374 1.48072 0.0452736C1.48072 -0.0146005 1.48072 -0.0370423 1.48072 -0.0370423C1.49195 -0.0744636 1.49195 -0.0969164 1.50317 -0.130596C1.5144 -0.224149 1.55182 -0.33264 1.57427 -0.426193C1.5855 -0.459872 1.60795 -0.508545 1.62292 -0.545967C1.62292 -0.557193 1.62292 -0.557204 1.62292 -0.557204C1.70525 -0.721858 1.78758 -0.875278 1.90733 -1.01748C1.90733 -1.01748 2.02707 -1.17088 2.03829 -1.18211C2.08694 -1.24198 2.14307 -1.28691 2.20295 -1.34679C2.21417 -1.35801 2.3676 -1.47775 2.3676 -1.47775C2.4387 -1.53763 2.52102 -1.58255 2.59212 -1.63119C2.82788 -1.76217 3.2208 -1.87816 3.479 -1.89312C4.0291 -1.93429 4.53804 -1.79209 4.96464 -1.51891Z" fill="#3E0A77"/>
<path id="Vector_9" d="M45.9857 -4.68113C45.2261 -4.5988 44.4814 -4.47907 43.7218 -4.36306C43.0594 -5.63164 41.7796 -6.49607 40.4062 -6.84035C38.5801 -7.30063 36.6866 -6.88901 34.9315 -6.34266C33.2625 -5.8225 31.4962 -5.20503 30.2388 -3.93645C29.221 -2.88117 28.6148 -1.4255 28.8168 0.0189622C28.2256 0.303364 27.6568 0.610243 27.088 0.932066C26.957 -0.965195 27.0169 -2.92984 28.3678 -4.38553C29.8946 -6.02085 32.312 -7.13227 34.4076 -7.80959C38.0749 -9.0183 44.6124 -9.29144 45.9857 -4.68113Z" fill="#3E0A77"/>
<path id="Vector_10" d="M18.0884 8.27794C17.224 9.33323 16.4419 10.4446 15.7084 11.6085C14.7504 10.8862 13.7289 10.2351 12.6399 9.71121C13.553 8.55115 14.4623 7.39107 15.3754 6.22726C15.802 6.48921 16.2174 6.78485 16.6327 7.08048C16.7038 7.14036 16.7862 7.18528 16.8573 7.24516C16.8909 7.26761 16.9171 7.2938 16.9508 7.32747C16.9508 7.32747 16.9508 7.32747 16.962 7.32747C17.093 7.43225 17.2352 7.54077 17.3662 7.64555C17.602 7.84762 17.8415 8.04971 18.066 8.26301C18.0772 8.27798 18.0884 8.27794 18.0884 8.27794Z" fill="#3E0A77"/>
<path id="Vector_11" d="M19.0013 -0.785585C19.0238 -0.692031 18.4924 -0.111992 18.3839 0.0189828C17.235 1.47467 16.0862 2.93409 14.9374 4.401C12.4601 7.55188 9.99777 10.7028 7.52048 13.8536C5.03196 12.3119 2.82784 10.5119 2.58086 7.3498C2.31891 4.19893 3.99164 1.29507 6.27809 -0.751872C7.48679 -1.82961 8.93124 -2.71653 10.5179 -3.087C12.2019 -3.49115 13.9195 -3.18052 15.5062 -2.57803C16.277 -2.29363 17.0217 -1.92692 17.7327 -1.52277C18.0396 -1.35812 18.5036 -1.18971 18.7394 -0.942725C18.7656 -0.938983 19.0013 -0.808037 19.0013 -0.785585Z" fill="#04C2E1"/>
<path id="Vector_12" d="M74.0032 3.48051C60.9133 -5.91224 43.9128 -4.93178 29.6627 1.25396C21.9502 4.86886 16.3819 11.1556 13.7774 19.2835C11.0045 27.9316 11.315 37.7285 14.3799 46.2568C16.9731 53.4941 21.8679 59.8931 28.4765 63.8823C35.6689 68.2306 44.0175 68.6572 52.1791 67.804C67.5069 66.1911 83.7964 59.4778 89.0092 43.686C93.844 29.043 86.0866 12.151 74.0032 3.48051ZM77.9474 49.7744C73.5991 55.1518 67.4171 59.1335 60.9133 61.3937C54.3982 63.6428 47.1721 64.1779 40.5037 62.2581C34.2618 60.4582 28.7871 56.514 24.8204 51.406C20.7228 46.1595 18.3652 39.8091 17.5831 33.223C16.7524 26.1878 18.7694 19.6839 22.287 13.6404C30.9463 1.61694 46.9252 -2.17385 60.6438 2.44768C73.2249 6.68751 82.9731 17.1842 83.7665 30.7719C84.1669 37.6574 82.2958 44.3857 77.9474 49.7744Z" fill="#FBBE07"/>
<path id="Vector_13" d="M81.5584 25.7872C78.7518 13.5841 67.8398 5.26912 55.9959 2.69827C44.0548 0.116201 30.8226 4.31113 23.5629 14.3887C21.6432 17.7042 20.0341 21.1993 19.2969 24.9789C18.6083 28.4965 18.7767 32.1226 19.4503 35.6178C20.8012 42.5969 23.9146 49.0146 29.0938 53.9542C38.7971 63.216 53.0359 63.942 64.7488 58.194C70.6015 55.3163 76.0987 50.9194 79.2945 45.164C82.5202 39.3599 83.0403 32.1937 81.5584 25.7872ZM22.6012 26.1876C23.417 26.1989 24.2365 26.3298 25.0074 26.5768C25.3965 26.6965 25.6098 27.0857 25.5163 27.4899C25.434 27.8678 24.9849 28.1186 24.6144 27.9988C24.2103 27.8791 23.8099 27.7855 23.3945 27.7256C23.1326 27.7032 22.8743 27.677 22.6012 27.6658C22.1858 27.6658 21.8789 27.3327 21.8677 26.9323C21.8453 26.5319 22.2232 26.1876 22.6012 26.1876ZM27.9936 39.431C27.7092 39.9512 27.2002 40.2954 26.6913 40.5686C25.6847 41.1 24.607 41.5266 23.518 41.8709C23.4955 41.8821 23.4806 41.8934 23.4581 41.9046C23.4581 41.9046 23.4469 41.9046 23.4357 41.9046C23.3982 41.9158 23.3646 41.927 23.3271 41.942C23.2224 41.9757 23.1026 41.9757 22.9941 41.9532C22.4964 41.9645 22.0473 41.7885 21.7143 41.3507C21.3101 40.8193 21.3251 40.0485 21.6207 39.4685C21.8827 38.9595 22.3654 38.6377 22.8519 38.4019C23.4095 38.1287 23.967 37.8818 24.5209 37.6198C25.0897 37.3466 25.6585 37.0398 26.2984 36.9799C26.8672 36.9201 27.4846 37.1109 27.8514 37.5599C28.2892 38.0951 28.3004 38.8285 27.9936 39.431ZM58.3423 8.67819C58.5331 8.03829 58.7202 7.38714 58.9223 6.74724C59.042 6.34309 59.4312 6.14475 59.8354 6.22708C60.2133 6.32063 60.464 6.77345 60.3443 7.14018C60.1535 7.78008 59.9664 8.43123 59.7643 9.07113C59.6445 9.47528 59.2553 9.68854 58.8512 9.59125C58.4732 9.50892 58.2225 9.04866 58.3423 8.67819ZM32.5178 13.6927C32.4355 13.8573 32.2446 13.9883 32.0688 14.0369C31.9041 14.0855 31.6534 14.0706 31.4999 13.9658C30.8825 13.5168 30.2576 13.064 29.6401 12.6149C29.4755 12.4952 29.3557 12.3679 29.2958 12.1658C29.236 11.975 29.2846 11.7767 29.3669 11.5971C29.4493 11.4436 29.6401 11.3014 29.816 11.2528C29.9806 11.2191 30.2314 11.2303 30.3848 11.3351C31.0023 11.7841 31.6272 12.2369 32.2446 12.686C32.4093 12.8057 32.529 12.933 32.5889 13.1238C32.6488 13.3109 32.6001 13.5243 32.5178 13.6927ZM35.4666 52.7119C34.9577 53.2694 34.4375 53.827 33.9136 54.3696C33.7827 54.523 33.5806 54.5829 33.3935 54.5941C33.1914 54.5941 33.0155 54.5006 32.8733 54.3696C32.7311 54.2499 32.6488 54.0253 32.6488 53.8494C32.6488 53.6586 32.7424 53.4715 32.8733 53.3293C33.3935 52.7717 33.9024 52.2291 34.4263 51.6715C34.5573 51.5293 34.7594 51.4582 34.9465 51.447C35.1485 51.447 35.3356 51.5406 35.4666 51.6715C35.6088 51.7913 35.6911 52.0158 35.6911 52.1917C35.6911 52.3938 35.6088 52.5697 35.4666 52.7119ZM40.1106 33.0956C39.5081 31.2844 37.8953 29.2711 35.7398 29.9223C34.8043 30.1955 34.2953 31.0936 34.1643 32.0179C33.9885 33.2752 34.46 34.54 34.8529 35.7001C35.1598 36.6132 33.7265 36.9912 33.4309 36.1043C32.9818 34.802 32.529 33.4137 32.6862 32.0179C32.8172 30.9289 33.2438 29.8399 34.1082 29.1401C34.9839 28.4404 36.099 28.2271 37.1992 28.3805C39.437 28.7136 40.8703 30.6894 41.5476 32.7027C41.8507 33.6045 40.4174 33.9937 40.1106 33.0956ZM45.4431 58.5533C45.4207 58.9687 45.1251 59.2755 44.6985 59.298C44.3205 59.3092 43.9388 58.9425 43.965 58.5533C43.9987 57.8423 44.0361 57.1313 44.0698 56.4091C44.0922 55.9937 44.3878 55.6868 44.8032 55.6756C45.1924 55.6531 45.5629 56.0199 45.5479 56.4091C45.5142 57.1313 45.4768 57.8423 45.4431 58.5533ZM44.6236 11.9376C44.1034 11.6644 43.748 11.1555 43.486 10.6466C42.9546 9.62869 42.528 8.56218 42.1837 7.45825C42.1725 7.44702 42.1613 7.4358 42.1463 7.4096C42.1463 7.39838 42.1463 7.38717 42.1463 7.38717C42.1351 7.35349 42.1239 7.31605 42.1126 7.2674C42.0752 7.16262 42.0752 7.05411 42.1014 6.94933C42.0902 6.45162 42.2661 6.00255 42.7039 5.6695C43.2353 5.26535 44.0062 5.28032 44.5862 5.57595C45.0951 5.82293 45.4169 6.30942 45.6527 6.80712C45.9259 7.35348 46.1729 7.92225 46.4348 8.46486C46.708 9.04489 47.0148 9.61371 47.0747 10.2536C47.1346 10.8224 46.9437 11.4399 46.4947 11.8066C45.9633 12.2444 45.2298 12.2557 44.6236 11.9376ZM50.3827 41.1038C49.8139 40.8792 49.2564 40.5462 48.7587 40.157C47.041 38.7949 45.881 36.602 46.5321 34.4465C46.9587 33.0245 48.3583 31.958 49.8626 32.3397C50.6559 32.5305 51.2472 33.0619 51.8871 33.5371C52.1116 33.6906 52.3474 33.8552 52.5981 33.975C53.107 33.975 53.6159 33.8103 53.9976 33.4287C54.5889 32.8486 54.8284 31.973 55.3373 31.3218C56.4525 29.8774 58.3947 29.8512 59.6483 31.1684C61.2948 32.9085 61.2349 35.4457 60.2058 37.4589C59.8878 38.1101 59.4612 38.7013 58.9485 39.1878C56.7893 41.3171 53.2492 42.2526 50.3827 41.1038ZM61.5418 58.8003C61.0104 59.2493 60.2732 59.2606 59.6707 58.9425C59.1506 58.6693 58.8063 58.1492 58.5331 57.6515C58.0017 56.6336 57.5751 55.5559 57.2308 54.4632C57.2196 54.4407 57.2084 54.4257 57.2084 54.4145C57.2084 54.4033 57.2084 54.3921 57.1972 54.3808C57.186 54.3434 57.1747 54.3097 57.1597 54.2723C57.1261 54.1675 57.1373 54.059 57.1485 53.9542C57.1485 53.4565 57.3132 52.9963 57.751 52.6632C58.2824 52.2591 59.0533 52.274 59.6333 52.5697C60.1422 52.8316 60.4753 53.3143 60.711 53.812C60.973 54.3584 61.22 54.9122 61.4819 55.4698C61.7551 56.0386 62.0619 56.6186 62.133 57.2585C62.1817 57.8161 61.9908 58.4335 61.5418 58.8003ZM63.9442 20.4547C63.0424 20.5856 62.4736 21.4127 62.2603 22.2322C61.9422 23.4297 62.2977 24.7095 62.6045 25.8695C62.8403 26.7938 61.4183 27.183 61.1713 26.2587C60.8046 24.8854 60.4715 23.4521 60.7821 22.0413C60.9954 21.0235 61.5755 20.073 62.4399 19.4817C63.3043 18.8905 64.4644 18.8194 65.4486 19.1636C67.6639 19.957 68.5882 22.1499 69.1795 24.2567C69.4414 25.1698 68.0082 25.559 67.7462 24.6459C67.4506 23.5906 67.1176 22.4904 66.4328 21.6147C65.8527 20.9037 64.906 20.3125 63.9442 20.4547ZM69.8081 52.274C69.6772 52.4162 69.4639 52.4985 69.2768 52.4985C69.1009 52.4985 68.8876 52.4162 68.7566 52.274C68.2814 51.7651 67.8435 51.2187 67.4543 50.6499C67.3346 50.4853 67.3346 50.2608 67.3832 50.0811C67.4207 49.8903 67.5591 49.7368 67.7163 49.6321C67.881 49.5385 68.1204 49.5123 68.2963 49.561C68.4872 49.6208 68.6144 49.7369 68.7342 49.9053C68.8389 50.0587 68.9475 50.2121 69.0672 50.3543C69.303 50.6612 69.5537 50.9455 69.8119 51.2299C69.9429 51.3721 70.014 51.548 70.0252 51.7501C70.0327 51.9522 69.9391 52.1318 69.8081 52.274ZM72.5923 17.315C72.3902 17.315 72.2143 17.2215 72.0721 17.0905C71.9299 16.9707 71.8588 16.7462 71.8588 16.5703C71.8588 16.3795 71.9412 16.1924 72.0721 16.0502C72.5474 15.5412 73.0301 15.0435 73.5166 14.5458C73.6476 14.4036 73.8347 14.3325 74.0368 14.3213C74.2276 14.3213 74.4147 14.4149 74.5569 14.5458C74.6879 14.6656 74.7702 14.8901 74.7702 15.066C74.7702 15.2568 74.6879 15.4439 74.5569 15.5861C74.0704 16.0839 73.5989 16.5928 73.1124 17.0905C72.9852 17.2327 72.7831 17.3038 72.5923 17.315ZM78.6471 41.7175C78.5535 42.0954 78.1007 42.3573 77.734 42.2376C77.1165 42.0467 76.5141 41.8597 75.9078 41.6688C75.5037 41.5379 75.2904 41.1599 75.3877 40.7557C75.47 40.3778 75.934 40.1158 76.3008 40.2356C76.9032 40.4264 77.5207 40.6135 78.1269 40.8044C78.5273 40.9354 78.7406 41.3171 78.6471 41.7175ZM80.1963 24.5186C79.9119 25.0388 79.403 25.3831 78.894 25.6562C77.8874 26.1876 76.8097 26.6142 75.7207 26.9585C75.6983 26.9585 75.687 26.981 75.6721 26.981H75.6384C75.601 26.9922 75.5673 27.0146 75.5299 27.0296C75.4251 27.0521 75.3166 27.0521 75.2118 27.0296C74.7141 27.0408 74.2538 26.8761 73.9207 26.4271C73.5166 25.8957 73.5316 25.1249 73.8272 24.5448C74.0891 24.0471 74.5719 23.7141 75.0584 23.4783C75.6159 23.2164 76.1735 22.9582 76.7273 22.7074C77.2961 22.4343 77.865 22.1274 78.5161 22.0563C79.0737 21.9964 79.6874 22.1985 80.0578 22.6364C80.5069 23.179 80.5181 23.9124 80.1963 24.5186Z" fill="#04C2E1"/>
<path id="Vector_14" d="M26.7251 38.522C26.7251 38.5445 26.7139 38.5707 26.7139 38.5931C26.7139 38.6156 26.7139 38.6306 26.7251 38.6306C26.7026 38.7503 26.6765 38.784 26.5941 38.8551C26.4744 38.9748 26.3808 39.0459 26.2049 39.1507C26.0291 39.2555 25.8382 39.3528 25.6586 39.4463C24.8054 39.8617 23.9297 40.206 23.0279 40.4904C23.0054 40.4904 22.9792 40.4904 22.9568 40.5016H22.9455C22.9343 40.5016 22.9343 40.5016 22.9343 40.5016C22.9343 40.4904 22.9343 40.4904 22.9231 40.4904C22.9119 40.4792 22.9119 40.4791 22.9006 40.4679C22.8894 40.4455 22.8894 40.4455 22.8894 40.4193C22.8894 40.3856 22.9006 40.2883 22.9006 40.2659C22.9006 40.2322 22.9119 40.1947 22.9119 40.1835C22.9343 40.1611 22.9455 40.1237 22.9605 40.1012L22.9979 40.0638C23.1027 39.9702 23.1514 39.9216 23.331 39.828C23.4956 39.7345 23.664 39.6522 23.8399 39.5661C24.2553 39.3752 24.6707 39.1881 25.0973 38.986C25.464 38.8102 25.8419 38.5969 26.2349 38.4884C26.3172 38.4659 26.3883 38.4547 26.437 38.4547C26.4744 38.4547 26.5679 38.4659 26.5904 38.4659H26.6016C26.639 38.4771 26.6839 38.4884 26.6839 38.4884C26.6952 38.4996 26.7064 38.4996 26.7326 38.5108C26.7251 38.507 26.7251 38.5071 26.7251 38.522Z" fill="white"/>
<path id="Vector_15" d="M45.6081 10.3848C45.6081 10.4223 45.5969 10.5046 45.5969 10.527C45.5969 10.5757 45.5744 10.6206 45.5744 10.6206C45.5632 10.643 45.552 10.6543 45.552 10.6692C45.552 10.6692 45.5407 10.6693 45.5407 10.6805C45.5183 10.6805 45.4921 10.6692 45.4696 10.6692C45.4584 10.6692 45.4584 10.6693 45.4472 10.6805C45.436 10.6805 45.4359 10.6805 45.4359 10.6805C45.305 10.6468 45.2825 10.6206 45.2114 10.5495C45.0917 10.4298 45.0206 10.3362 44.9158 10.1603C44.811 9.9807 44.7137 9.79359 44.6202 9.60274C44.2048 8.76076 43.8605 7.88511 43.5761 6.98325C43.5761 6.9608 43.5761 6.93463 43.5649 6.91217V6.90094C43.5649 6.88971 43.5649 6.8897 43.5649 6.8897C43.5649 6.87847 43.5649 6.87846 43.5649 6.87846C43.5761 6.87846 43.5761 6.87846 43.5761 6.87846C43.5873 6.85601 43.5986 6.85602 43.5986 6.84479C43.621 6.84479 43.621 6.84478 43.6323 6.83356C43.6435 6.83356 43.6435 6.83356 43.6435 6.83356C43.6772 6.83356 43.7632 6.84479 43.7857 6.84479C43.8231 6.85602 43.868 6.86727 43.8792 6.86727C43.9017 6.8785 43.9279 6.90095 43.9615 6.91592C43.9728 6.92715 43.984 6.93836 43.9952 6.94959C44.0888 7.05811 44.1374 7.09179 44.231 7.28264C44.3245 7.44729 44.4069 7.61567 44.4929 7.78033C44.6838 8.20693 44.8709 8.6223 45.073 9.03768C45.2489 9.41563 45.4622 9.79736 45.5707 10.1865C45.5969 10.2576 45.6081 10.3399 45.6081 10.3848Z" fill="white"/>
<path id="Vector_16" d="M32.5177 13.6929C32.4354 13.8576 32.2445 13.9885 32.0687 14.0372C31.904 14.0858 31.6533 14.0709 31.4999 13.9661C30.8824 13.517 30.2575 13.0642 29.64 12.6152C29.4754 12.4954 29.3556 12.3682 29.2957 12.1661C29.2359 11.9753 29.2845 11.777 29.3668 11.5973C29.4492 11.4439 29.64 11.3017 29.8159 11.253C29.9805 11.2194 30.2313 11.2306 30.3847 11.3354C31.0022 11.7844 31.6271 12.2372 32.2445 12.6863C32.4092 12.806 32.5289 12.9333 32.5888 13.1241C32.6487 13.3112 32.6 13.5245 32.5177 13.6929Z" fill="white"/>
<path id="Vector_17" d="M25.5165 27.4902C25.4341 27.8681 24.9851 28.1188 24.6146 27.9991C24.2105 27.8793 23.8101 27.7858 23.3947 27.7259C23.1327 27.7035 22.8745 27.6772 22.6014 27.666C22.186 27.666 21.8791 27.333 21.8679 26.9326C21.8454 26.5284 22.2234 26.1879 22.6014 26.1879C23.4171 26.1991 24.2367 26.3301 25.0076 26.577C25.3967 26.6968 25.61 27.0897 25.5165 27.4902Z" fill="white"/>
<path id="Vector_18" d="M35.6914 52.1919C35.6914 52.394 35.6091 52.5699 35.4669 52.7121C34.958 53.2696 34.4378 53.8272 33.9139 54.3698C33.7829 54.5232 33.5808 54.5831 33.3937 54.5943C33.1917 54.5943 33.0158 54.5008 32.8736 54.3698C32.7314 54.25 32.649 54.0255 32.649 53.8496C32.649 53.6588 32.7426 53.4717 32.8736 53.3295C33.3937 52.7719 33.9027 52.2293 34.4266 51.6717C34.5575 51.5295 34.7596 51.4584 34.9467 51.4472C35.1488 51.4472 35.3359 51.5408 35.4669 51.6717C35.6091 51.7877 35.6914 52.0123 35.6914 52.1919Z" fill="white"/>
<path id="Vector_19" d="M45.548 56.4093C45.5143 57.1316 45.4768 57.8425 45.4432 58.5536C45.4207 58.9689 45.1251 59.2758 44.6985 59.2982C44.3205 59.3095 43.9388 58.9427 43.965 58.5536C43.9987 57.8425 44.0361 57.1316 44.0698 56.4093C44.0923 55.9939 44.3879 55.6871 44.8033 55.6758C45.1924 55.6496 45.5592 56.0164 45.548 56.4093Z" fill="white"/>
<path id="Vector_20" d="M60.2022 37.4554C59.8841 38.1065 59.4575 38.6978 58.9448 39.1843C56.7894 41.3173 53.2456 42.2528 50.3791 41.104C49.8103 40.8795 49.2527 40.5464 48.755 40.1572C49.4997 38.6042 51.3371 35.7378 54.7836 35.4309C57.1935 35.2026 58.9935 36.3066 60.2022 37.4554Z" fill="#FB0798"/>
</g>
</g>
</g>
</svg>
