<svg width="136" height="40" viewBox="0 0 136 40" fill="none" xmlns="http://www.w3.org/2000/svg">
<g id="googleplay">
<g id="g18">
<path id="path20" d="M47.9174 10.2435C47.9174 11.0785 47.6674 11.7473 47.1749 12.246C46.6087 12.8373 45.8712 13.1347 44.9674 13.1347C44.1037 13.1347 43.3662 12.8322 42.7612 12.236C42.1549 11.631 41.8524 10.8885 41.8524 9.99975C41.8524 9.111 42.1549 8.3685 42.7612 7.7685C43.3662 7.16725 44.1037 6.86475 44.9674 6.86475C45.3974 6.86475 45.8074 6.9535 46.1987 7.1185C46.5887 7.28475 46.9062 7.50975 47.1362 7.78725L46.6137 8.31475C46.2124 7.841 45.6662 7.60725 44.9674 7.60725C44.3374 7.60725 43.7912 7.82725 43.3274 8.271C42.8687 8.716 42.6387 9.29225 42.6387 9.99975C42.6387 10.7072 42.8687 11.2885 43.3274 11.7335C43.7912 12.1722 44.3374 12.3972 44.9674 12.3972C45.6362 12.3972 46.1987 12.1722 46.6424 11.7285C46.9349 11.4347 47.1012 11.0297 47.1449 10.5122H44.9674V9.78975H47.8724C47.9074 9.946 47.9174 10.0972 47.9174 10.2435V10.2435Z" fill="white" stroke="#3D3D44" stroke-width="0.0948539" stroke-miterlimit="10"/>
</g>
<g id="g22">
<path id="path24" d="M52.5262 7.73842H49.7974V9.63842H52.2574V10.3609H49.7974V12.2609H52.5262V12.9972H49.0249V7.00217H52.5262V7.73842Z" fill="white" stroke="#3D3D44" stroke-width="0.0948539" stroke-miterlimit="10"/>
</g>
<g id="g26">
<path id="path28" d="M55.7786 12.9972H55.0061V7.73842H53.3323V7.00217H57.4536V7.73842H55.7786V12.9972V12.9972Z" fill="white" stroke="#3D3D44" stroke-width="0.0948539" stroke-miterlimit="10"/>
</g>
<g id="g30">
<path id="path32" d="M60.4362 12.9972V7.00217H61.2074V12.9972H60.4362Z" fill="white" stroke="#3D3D44" stroke-width="0.0948539" stroke-miterlimit="10"/>
</g>
<g id="g34">
<path id="path36" d="M64.626 12.9972H63.8597V7.73842H62.1797V7.00217H66.306V7.73842H64.626V12.9972Z" fill="white" stroke="#3D3D44" stroke-width="0.0948539" stroke-miterlimit="10"/>
</g>
<g id="g38">
<path id="path40" d="M74.1086 12.226C73.5174 12.8322 72.7849 13.1347 71.9111 13.1347C71.0324 13.1347 70.2999 12.8322 69.7086 12.226C69.1186 11.621 68.8249 10.8785 68.8249 9.99975C68.8249 9.121 69.1186 8.3785 69.7086 7.7735C70.2999 7.16725 71.0324 6.86475 71.9111 6.86475C72.7799 6.86475 73.5124 7.16725 74.1036 7.7785C74.6986 8.3885 74.9924 9.126 74.9924 9.99975C74.9924 10.8785 74.6986 11.621 74.1086 12.226ZM70.2799 11.7235C70.7249 12.1722 71.2661 12.3972 71.9111 12.3972C72.5511 12.3972 73.0974 12.1722 73.5374 11.7235C73.9811 11.2747 74.2061 10.6985 74.2061 9.99975C74.2061 9.301 73.9811 8.72475 73.5374 8.276C73.0974 7.82725 72.5511 7.60225 71.9111 7.60225C71.2661 7.60225 70.7249 7.82725 70.2799 8.276C69.8361 8.72475 69.6111 9.301 69.6111 9.99975C69.6111 10.6985 69.8361 11.2747 70.2799 11.7235V11.7235Z" fill="white" stroke="#3D3D44" stroke-width="0.0948539" stroke-miterlimit="10"/>
</g>
<g id="g42">
<path id="path44" d="M76.0764 12.9972V7.00217H77.0139L79.9289 11.6647H79.9626L79.9289 10.5122V7.00217H80.7001V12.9972H79.8951L76.8426 8.10467H76.8089L76.8426 9.26217V12.9972H76.0764V12.9972Z" fill="white" stroke="#3D3D44" stroke-width="0.0948539" stroke-miterlimit="10"/>
</g>
<path id="path46" d="M68.635 21.7522C66.2862 21.7522 64.3675 23.5397 64.3675 26.006C64.3675 28.4522 66.2862 30.2584 68.635 30.2584C70.9887 30.2584 72.9075 28.4522 72.9075 26.006C72.9075 23.5397 70.9887 21.7522 68.635 21.7522ZM68.635 28.5834C67.3462 28.5834 66.2375 27.5197 66.2375 26.006C66.2375 24.4722 67.3462 23.4272 68.635 23.4272C69.9237 23.4272 71.0375 24.4722 71.0375 26.006C71.0375 27.5197 69.9237 28.5834 68.635 28.5834ZM59.3237 21.7522C56.97 21.7522 55.0562 23.5397 55.0562 26.006C55.0562 28.4522 56.97 30.2584 59.3237 30.2584C61.6762 30.2584 63.5912 28.4522 63.5912 26.006C63.5912 23.5397 61.6762 21.7522 59.3237 21.7522ZM59.3237 28.5834C58.0337 28.5834 56.9212 27.5197 56.9212 26.006C56.9212 24.4722 58.0337 23.4272 59.3237 23.4272C60.6125 23.4272 61.7212 24.4722 61.7212 26.006C61.7212 27.5197 60.6125 28.5834 59.3237 28.5834ZM48.2437 23.056V24.8635H52.56C52.4337 25.8735 52.0962 26.616 51.5787 27.1335C50.9487 27.7585 49.9675 28.4522 48.2437 28.4522C45.5875 28.4522 43.5075 26.3085 43.5075 23.6522C43.5075 20.996 45.5875 18.8522 48.2437 18.8522C49.68 18.8522 50.725 19.4135 51.4962 20.141L52.77 18.8672C51.6912 17.8372 50.2562 17.046 48.2437 17.046C44.6012 17.046 41.54 20.0097 41.54 23.6522C41.54 27.2947 44.6012 30.2584 48.2437 30.2584C50.2125 30.2584 51.6912 29.6134 52.8537 28.4034C54.045 27.2122 54.4162 25.5372 54.4162 24.1847C54.4162 23.7647 54.3812 23.3785 54.3187 23.056H48.2437ZM93.5512 24.4572C93.2 23.506 92.1162 21.7522 89.9087 21.7522C87.7212 21.7522 85.9 23.476 85.9 26.006C85.9 28.3884 87.7025 30.2584 90.1187 30.2584C92.0725 30.2584 93.2 29.0672 93.6637 28.3734L92.2137 27.4072C91.73 28.1147 91.0712 28.5834 90.1187 28.5834C89.1725 28.5834 88.4937 28.1497 88.0587 27.2947L93.7475 24.9409L93.5512 24.4572ZM87.7512 25.8734C87.7025 24.2335 89.025 23.3935 89.9725 23.3935C90.715 23.3935 91.345 23.7647 91.555 24.296L87.7512 25.8734ZM83.1275 29.9997H84.9975V17.4997H83.1275V29.9997ZM80.065 22.6997H80.0025C79.5825 22.2022 78.7812 21.7522 77.7662 21.7522C75.6362 21.7522 73.6887 23.6222 73.6887 26.0197C73.6887 28.4034 75.6362 30.2584 77.7662 30.2584C78.7812 30.2584 79.5825 29.8047 80.0025 29.2922H80.065V29.9022C80.065 31.5284 79.1962 32.4022 77.795 32.4022C76.6525 32.4022 75.9437 31.5772 75.6512 30.8834L74.025 31.5622C74.4937 32.6897 75.735 34.0772 77.795 34.0772C79.9875 34.0772 81.8375 32.7872 81.8375 29.6484V22.011H80.065V22.6997ZM77.9262 28.5834C76.6375 28.5834 75.5587 27.5047 75.5587 26.0197C75.5587 24.521 76.6375 23.4272 77.9262 23.4272C79.1962 23.4272 80.1975 24.521 80.1975 26.0197C80.1975 27.5047 79.1962 28.5834 77.9262 28.5834ZM102.306 17.4997H97.8337V29.9997H99.6987V25.2635H102.306C104.377 25.2635 106.409 23.7647 106.409 21.381C106.409 18.9985 104.372 17.4997 102.306 17.4997ZM102.355 23.5247H99.6987V19.2385H102.355C103.747 19.2385 104.542 20.3947 104.542 21.381C104.542 22.3485 103.747 23.5247 102.355 23.5247ZM113.884 21.7285C112.536 21.7285 111.135 22.3235 110.559 23.6422L112.214 24.336C112.57 23.6422 113.225 23.4172 113.917 23.4172C114.885 23.4172 115.866 23.9985 115.881 25.0247V25.156C115.544 24.961 114.821 24.6722 113.932 24.6722C112.15 24.6722 110.334 25.6535 110.334 27.4847C110.334 29.1597 111.794 30.2384 113.435 30.2384C114.69 30.2384 115.382 29.6722 115.817 29.0134H115.881V29.9797H117.682V25.1847C117.682 22.9685 116.027 21.7285 113.884 21.7285ZM113.659 28.5784C113.049 28.5784 112.199 28.276 112.199 27.5197C112.199 26.5522 113.259 26.1809 114.176 26.1809C114.997 26.1809 115.382 26.3622 115.881 26.6009C115.735 27.7584 114.739 28.5784 113.659 28.5784ZM124.245 22.0022L122.101 27.4209H122.037L119.821 22.0022H117.81L121.14 29.5747L119.24 33.7884H121.189L126.32 22.0022H124.245ZM107.434 29.9997H109.304V17.4997H107.434V29.9997Z" fill="white"/>
<g id="g48">
<path id="path64" d="M10.935 7.53839C10.6413 7.84589 10.4713 8.32464 10.4713 8.94464V31.0596C10.4713 31.6796 10.6413 32.1584 10.935 32.4659L11.0075 32.5334L23.4 20.1459V19.8534L11.0075 7.46589L10.935 7.53839Z" fill="url(#paint0_linear_124_14749)"/>
</g>
<g id="g66">
<path id="path78" d="M27.5263 24.2775L23.4 20.1463V19.8537L27.5313 15.7225L27.6238 15.7763L32.5163 18.56C33.9125 19.35 33.9125 20.65 32.5163 21.445L27.6238 24.2237L27.5263 24.2775V24.2775Z" fill="url(#paint1_linear_124_14749)"/>
</g>
<g id="g80">
<path id="path88" d="M27.6237 24.2236L23.4 19.9999L10.935 32.4661C11.3987 32.9536 12.155 33.0123 13.015 32.5248L27.6237 24.2236" fill="url(#paint2_linear_124_14749)"/>
</g>
<g id="g90">
<path id="path104" d="M27.6237 15.776L13.015 7.4748C12.155 6.9923 11.3987 7.05105 10.935 7.53855L23.4 19.9998L27.6237 15.776Z" fill="url(#paint3_linear_124_14749)"/>
</g>
</g>
<defs>
<linearGradient id="paint0_linear_124_14749" x1="22.2997" y1="31.2899" x2="5.51729" y2="14.5076" gradientUnits="userSpaceOnUse">
<stop stop-color="#00A0FF"/>
<stop offset="0.0066" stop-color="#00A1FF"/>
<stop offset="0.2601" stop-color="#00BEFF"/>
<stop offset="0.5122" stop-color="#00D2FF"/>
<stop offset="0.7604" stop-color="#00DFFF"/>
<stop offset="1" stop-color="#00E3FF"/>
</linearGradient>
<linearGradient id="paint1_linear_124_14749" x1="34.3344" y1="19.9986" x2="10.1375" y2="19.9986" gradientUnits="userSpaceOnUse">
<stop stop-color="#FFE000"/>
<stop offset="0.4087" stop-color="#FFBD00"/>
<stop offset="0.7754" stop-color="#FFA500"/>
<stop offset="1" stop-color="#FF9C00"/>
</linearGradient>
<linearGradient id="paint2_linear_124_14749" x1="25.327" y1="17.7038" x2="2.5687" y2="-5.05455" gradientUnits="userSpaceOnUse">
<stop stop-color="#FF3A44"/>
<stop offset="1" stop-color="#C31162"/>
</linearGradient>
<linearGradient id="paint3_linear_124_14749" x1="7.7973" y1="39.8236" x2="17.9599" y2="29.6611" gradientUnits="userSpaceOnUse">
<stop stop-color="#32A071"/>
<stop offset="0.0685" stop-color="#2DA771"/>
<stop offset="0.4762" stop-color="#15CF74"/>
<stop offset="0.8009" stop-color="#06E775"/>
<stop offset="1" stop-color="#00F076"/>
</linearGradient>
</defs>
</svg>
