<svg width="30" height="66" viewBox="0 0 30 66" fill="none" xmlns="http://www.w3.org/2000/svg">
<g id="Group 5707">
<g id="Clip path group">
<g id="Group">
<path id="Vector" d="M15.9208 41.4145C16.3982 41.8309 17.125 41.9635 17.7191 42.12C18.3981 42.3004 19.0878 42.4303 19.7853 42.5205C19.7482 43.2658 19.7535 44.0138 19.8225 44.7564C19.8622 45.1622 19.9179 45.5628 19.9843 45.9606C20.0373 46.2656 20.1036 46.5653 20.2442 46.8465C20.5465 47.4406 21.2149 47.613 21.7985 47.3107C22.1114 47.1462 22.3369 46.8677 22.5597 46.6025C22.817 46.2869 23.0796 45.9686 23.3368 45.6529L24.9733 43.6557C25.8327 43.8281 26.6947 43.9581 27.5674 44.0138C28.2066 44.0536 29.3285 44.2313 29.7052 43.531C30.0818 42.8308 29.3206 41.998 28.9147 41.494C28.4612 40.9344 27.944 40.4331 27.4666 39.8947C27.936 39.3615 28.3737 38.7992 28.7715 38.2051C29.1747 37.6057 29.6097 36.9532 29.867 36.2715C29.9863 35.9638 30.0685 35.5978 29.92 35.2902C29.7715 34.9772 29.4452 34.7836 29.111 34.7358C28.3551 34.6403 27.6071 34.9719 26.9281 35.261C26.1112 35.6058 25.3288 36.0222 24.5622 36.4599C23.9177 35.1549 23.2307 33.8817 22.2016 32.8261C21.7587 32.3752 21.0319 31.8368 20.4908 32.4707C20.2442 32.7651 20.1832 33.1258 20.1222 33.4918C20.0479 33.9534 19.9869 34.4069 19.9391 34.8684C19.8331 35.8312 19.7641 36.7967 19.7084 37.7648C19.0665 38.1096 18.43 38.4677 17.7934 38.8231C17.4539 39.0088 17.1144 39.1971 16.7749 39.3827C16.4884 39.5366 16.202 39.6798 15.9579 39.9C15.507 40.319 15.4328 40.998 15.9208 41.4145ZM16.812 40.1148C17.1674 39.9185 17.5255 39.7249 17.8862 39.5286C18.6528 39.1069 19.4193 38.6692 20.1911 38.2555C20.3158 38.1892 20.3556 38.0831 20.3476 37.977C20.3476 37.9717 20.3476 37.9664 20.3476 37.9664C20.406 36.9638 20.4749 35.9586 20.581 34.9586C20.6394 34.4626 20.7083 33.964 20.7879 33.4653C20.825 33.2584 20.8595 33.0728 20.9868 32.903C21.0797 32.7757 21.1911 32.8606 21.321 32.9375C21.6579 33.1311 21.9337 33.4998 22.1884 33.7889C22.4536 34.1045 22.6923 34.444 22.9098 34.7915C23.3793 35.5262 23.7533 36.3087 24.1352 37.0938C24.2068 37.2397 24.3341 37.2741 24.4561 37.2449C24.4986 37.2449 24.5463 37.2264 24.5914 37.1998C25.411 36.7251 26.2438 36.2636 27.1191 35.8922C27.5276 35.7198 27.9546 35.5262 28.3922 35.4334C28.6336 35.3803 29.1747 35.2795 29.3179 35.5554C29.4505 35.8153 29.1535 36.2662 29.0368 36.489C28.8432 36.8524 28.6336 37.2052 28.4161 37.5473C27.936 38.3006 27.4029 39.0141 26.7929 39.6692C26.7557 39.701 26.7319 39.7435 26.7213 39.7859C26.7107 39.8018 26.716 39.8177 26.7106 39.8337C26.7053 39.8602 26.7 39.8814 26.7027 39.9079C26.7027 39.9238 26.7133 39.9397 26.7133 39.9557C26.7292 40.0193 26.7584 40.0803 26.8008 40.1334C27.2491 40.6612 27.7451 41.1466 28.2039 41.6717C28.432 41.9317 28.6416 42.1996 28.8325 42.486C28.9466 42.6478 29.2383 43.0059 29.1216 43.2181C29.0155 43.409 28.6124 43.3825 28.4347 43.3799C28.0554 43.3772 27.6681 43.3586 27.2888 43.3295C26.5276 43.2711 25.7717 43.1438 25.0237 42.9926C24.907 42.9051 24.7479 42.8918 24.6285 43.0377C24.0477 43.7459 23.4694 44.4488 22.8886 45.1569C22.6101 45.4938 22.3316 45.8386 22.0504 46.1781C21.8435 46.4301 21.5677 46.8173 21.199 46.8067C20.8887 46.7961 20.7746 46.4566 20.7057 46.2046C20.6022 45.8227 20.5572 45.4169 20.5121 45.0164C20.4086 44.1172 20.3901 43.2048 20.4511 42.3003C20.4511 42.2897 20.4458 42.2844 20.4458 42.2791C20.4511 42.2632 20.4563 42.242 20.4563 42.2261C20.451 42.0298 20.3025 41.9237 20.1222 41.9051C19.3291 41.8256 18.544 41.6532 17.7748 41.441C17.43 41.3481 17.0799 41.2606 16.751 41.1307C16.56 41.0617 16.2179 40.9211 16.2285 40.6665C16.2444 40.4119 16.6131 40.2235 16.812 40.1148Z" fill="#3E0A77"/>
<path id="Vector_2" d="M16.2284 40.6745C16.2443 40.4092 16.6157 40.2235 16.8119 40.1148C17.1673 39.9185 17.5254 39.7249 17.8861 39.5286C18.6527 39.1069 19.4192 38.6692 20.191 38.2555C20.3157 38.1892 20.3555 38.0831 20.3476 37.977C20.3476 37.9717 20.3476 37.9664 20.3476 37.9664C20.4059 36.9638 20.4749 35.9585 20.581 34.9586C20.6393 34.4626 20.7083 33.964 20.7878 33.4653C20.825 33.2584 20.8594 33.0728 20.9867 32.903C21.0796 32.7757 21.191 32.8606 21.3209 32.9375C21.6578 33.1311 21.9337 33.4998 22.1883 33.7889C22.4535 34.1045 22.6922 34.444 22.9097 34.7915C23.3792 35.5262 23.7532 36.3087 24.1351 37.0938C24.2068 37.2397 24.3341 37.2741 24.4561 37.2449C24.4985 37.2449 24.5462 37.2264 24.5913 37.1998C25.4109 36.7251 26.2438 36.2636 27.119 35.8922C27.5275 35.7198 27.9545 35.5262 28.3922 35.4334C28.6335 35.3803 29.1746 35.2795 29.3178 35.5554C29.4505 35.8153 29.1534 36.2662 29.0367 36.489C28.8431 36.8524 28.6335 37.2052 28.416 37.5473C27.9359 38.3006 27.4028 39.0141 26.7928 39.6692C26.7556 39.701 26.7318 39.7435 26.7212 39.7859C26.7106 39.8018 26.7159 39.8177 26.7106 39.8337C26.7053 39.8602 26.7 39.8814 26.7026 39.9079C26.7026 39.9238 26.7132 39.9397 26.7132 39.9557C26.7291 40.0193 26.7583 40.0803 26.8007 40.1334C27.249 40.6612 27.745 41.1466 28.2039 41.6717C28.432 41.9317 28.6415 42.1996 28.8325 42.486C28.9465 42.6478 29.2383 43.0059 29.1216 43.2181C29.0155 43.409 28.6123 43.3825 28.4346 43.3799C28.0553 43.3772 27.6681 43.3586 27.2888 43.3295C26.5275 43.2711 25.7716 43.1438 25.0237 42.9926C24.907 42.9051 24.7478 42.8918 24.6285 43.0377C24.0476 43.7459 23.4694 44.4488 22.8885 45.1569C22.61 45.4938 22.3315 45.8386 22.0503 46.1781C21.8435 46.4301 21.5676 46.8173 21.199 46.8067C20.8886 46.7961 20.7746 46.4566 20.7056 46.2046C20.6022 45.8227 20.5571 45.4169 20.512 45.0164C20.4086 44.1172 20.39 43.2048 20.451 42.3003C20.451 42.2897 20.4457 42.2844 20.4457 42.2791C20.451 42.2632 20.4563 42.242 20.4563 42.2261C20.451 42.0298 20.3025 41.9237 20.1221 41.9051C19.3291 41.8256 18.5439 41.6532 17.7747 41.441C17.4299 41.3481 17.0798 41.2606 16.7509 41.1307C16.5573 41.0697 16.2178 40.9291 16.2284 40.6745Z" fill="#FBDC2E"/>
</g>
</g>
<g id="Clip path group_2">
<g id="Group_2">
<path id="Vector_3" d="M0.680271 11.6736C1.28236 12.1987 2.19212 12.3658 2.94009 12.5621C3.79415 12.7902 4.6588 12.952 5.53673 13.0661C5.48899 14.0023 5.49696 14.9439 5.58184 15.8749C5.63223 16.3842 5.7012 16.8855 5.78607 17.3894C5.85238 17.7714 5.9346 18.148 6.11496 18.5034C6.49425 19.2514 7.33505 19.4662 8.06976 19.0869C8.46231 18.8801 8.74875 18.5299 9.0246 18.1984C9.34819 17.8005 9.6771 17.4027 10.0007 17.0048L12.0563 14.4957C13.1358 14.7132 14.218 14.875 15.3134 14.9439C16.117 14.9943 17.5255 15.2171 17.9976 14.3392C18.4697 13.4613 17.5122 12.4136 17.0029 11.7823C16.4327 11.0794 15.7829 10.4482 15.1834 9.77183C15.7722 9.10344 16.3213 8.39526 16.8226 7.64994C17.3318 6.89667 17.8782 6.07708 18.1965 5.22302C18.3477 4.83578 18.4511 4.37691 18.2628 3.98967C18.0745 3.59712 17.666 3.3531 17.2469 3.29475C16.2974 3.17539 15.3585 3.59181 14.5044 3.95518C13.4806 4.38752 12.4966 4.9127 11.5338 5.46174C10.7248 3.82258 9.86276 2.22053 8.5684 0.896999C8.01406 0.332047 7.09634 -0.344288 6.41734 0.451422C6.10701 0.822752 6.03009 1.27364 5.95317 1.7325C5.86034 2.31072 5.78608 2.88363 5.72507 3.46185C5.5898 4.67133 5.50228 5.8861 5.43598 7.10089C4.62966 7.53587 3.83128 7.98147 3.03026 8.42972C2.60323 8.66313 2.17887 8.8992 1.75184 9.13261C1.39112 9.32623 1.03039 9.50658 0.725372 9.78242C0.163071 10.2996 0.0675735 11.151 0.680271 11.6736ZM1.79956 10.0397C2.24516 9.79306 2.6987 9.55168 3.14961 9.30236C4.11241 8.77189 5.07523 8.22284 6.046 7.70563C6.20249 7.62341 6.25288 7.48812 6.24493 7.3555C6.24493 7.3502 6.24493 7.34226 6.24493 7.34226C6.31919 6.08239 6.40406 4.81986 6.53668 3.56529C6.61095 2.93934 6.69582 2.31601 6.79661 1.69005C6.84435 1.43012 6.8868 1.19674 7.04595 0.981894C7.16265 0.820099 7.30321 0.928825 7.46501 1.02696C7.88673 1.27098 8.23419 1.7325 8.55513 2.09853C8.88932 2.49638 9.18905 2.92076 9.46225 3.3584C10.0511 4.28143 10.5232 5.26546 11.0006 6.24949C11.0908 6.4325 11.25 6.47758 11.4011 6.44045C11.4542 6.44045 11.5125 6.41924 11.5735 6.38476C12.6026 5.78798 13.6503 5.20709 14.7484 4.74027C15.2603 4.52543 15.7987 4.28144 16.3478 4.16473C16.6501 4.09842 17.3318 3.9711 17.5122 4.31856C17.6793 4.64745 17.3053 5.20977 17.1594 5.49357C16.918 5.94978 16.6555 6.39272 16.377 6.82241C15.7749 7.7693 15.1038 8.66578 14.3373 9.49067C14.2922 9.53045 14.2604 9.58617 14.2471 9.63922C14.2339 9.66043 14.2418 9.679 14.2338 9.70022C14.2285 9.7347 14.2206 9.76121 14.2232 9.79304C14.2232 9.81161 14.2365 9.83282 14.2365 9.85139C14.2577 9.93096 14.2922 10.0105 14.3479 10.0742C14.9129 10.7399 15.5335 11.35 16.1117 12.0051C16.3982 12.3313 16.6634 12.6708 16.9021 13.0289C17.0454 13.2305 17.414 13.6814 17.2655 13.9493C17.1302 14.1907 16.6263 14.1535 16.4008 14.1535C15.9234 14.1509 15.438 14.127 14.9606 14.0899C14.0057 14.0156 13.0535 13.8565 12.1146 13.6655C11.9661 13.5567 11.7672 13.5408 11.6186 13.7212C10.8892 14.6124 10.1651 15.4956 9.43307 16.3842C9.08296 16.8085 8.73551 17.2409 8.38009 17.6653C8.12281 17.9809 7.77269 18.4663 7.30853 18.4557C6.91598 18.4451 6.77541 18.0154 6.69054 17.6997C6.56057 17.2196 6.50486 16.7104 6.44651 16.2065C6.31654 15.0766 6.29266 13.9281 6.36958 12.7955C6.36958 12.7822 6.36165 12.7769 6.36165 12.769C6.36695 12.7478 6.37489 12.7212 6.37224 12.7027C6.36693 12.4587 6.17862 12.3234 5.95317 12.2995C4.95588 12.2014 3.97186 11.9839 3.00375 11.7187C2.57141 11.602 2.13112 11.4906 1.71735 11.3288C1.47599 11.2412 1.04893 11.0635 1.06219 10.7452C1.08607 10.4137 1.55024 10.1776 1.79956 10.0397Z" fill="#3E0A77"/>
<path id="Vector_4" d="M1.06486 10.7452C1.08343 10.4136 1.55025 10.1776 1.79957 10.0397C2.24517 9.79302 2.69872 9.55165 3.14962 9.30232C4.11243 8.77185 5.07525 8.22281 6.04601 7.7056C6.2025 7.62337 6.2529 7.48808 6.24494 7.35546C6.24494 7.35016 6.24494 7.34222 6.24494 7.34222C6.31921 6.08235 6.40407 4.81983 6.53669 3.56526C6.61096 2.9393 6.69583 2.31598 6.79662 1.69002C6.84436 1.43008 6.88682 1.1967 7.04596 0.981855C7.16266 0.820061 7.30323 0.928787 7.46502 1.02692C7.88675 1.27094 8.2342 1.73247 8.55514 2.09849C8.88934 2.49635 9.18906 2.92072 9.46226 3.35837C10.0511 4.28139 10.5232 5.26542 11.0006 6.24945C11.0908 6.43246 11.25 6.47754 11.4012 6.44041C11.4542 6.44041 11.5125 6.4192 11.5735 6.38472C12.6026 5.78794 13.6504 5.20705 14.7484 4.74024C15.2603 4.5254 15.7987 4.2814 16.3478 4.16469C16.6502 4.09838 17.3318 3.97106 17.5122 4.31852C17.6793 4.64741 17.3053 5.20973 17.1594 5.49353C16.9181 5.94974 16.6555 6.39269 16.377 6.82237C15.7749 7.76926 15.1038 8.66575 14.3373 9.49063C14.2922 9.53042 14.2604 9.58613 14.2471 9.63918C14.2339 9.6604 14.2418 9.67896 14.2339 9.70018C14.2286 9.73466 14.2206 9.76118 14.2232 9.79301C14.2232 9.81157 14.2365 9.83278 14.2365 9.85135C14.2577 9.93092 14.2922 10.0105 14.3479 10.0741C14.9129 10.7399 15.5335 11.3499 16.1118 12.0051C16.3982 12.3313 16.6634 12.6708 16.9022 13.0289C17.0454 13.2305 17.4141 13.6814 17.2655 13.9493C17.1303 14.1906 16.6263 14.1535 16.4009 14.1535C15.9234 14.1508 15.438 14.127 14.9606 14.0898C14.0058 14.0156 13.0536 13.8564 12.1146 13.6655C11.9661 13.5567 11.7672 13.5408 11.6186 13.7211C10.8892 14.6123 10.1651 15.4956 9.43309 16.3841C9.08297 16.8085 8.73552 17.2409 8.38011 17.6652C8.12283 17.9809 7.7727 18.4662 7.30854 18.4556C6.91599 18.445 6.77543 18.0153 6.69055 17.6997C6.56058 17.2196 6.50487 16.7104 6.44652 16.2064C6.31656 15.0765 6.29267 13.928 6.36959 12.7955C6.36959 12.7822 6.36166 12.7769 6.36166 12.769C6.36696 12.7477 6.3749 12.7212 6.37225 12.7026C6.36694 12.4586 6.17864 12.3233 5.95319 12.2995C4.9559 12.2013 3.97187 11.9839 3.00376 11.7186C2.57142 11.6019 2.13113 11.4905 1.71737 11.3287C1.48131 11.2386 1.0516 11.0635 1.06486 10.7452Z" fill="#7C82D8"/>
</g>
</g>
<g id="Clip path group_3">
<path id="Vector_5" d="M0.759347 62.9643C0.727519 61.4418 1.93436 60.1846 3.45681 60.1528C4.97927 60.1209 6.23649 61.3278 6.26831 62.8502C6.30014 64.3727 4.75648 65.309 3.23668 65.3408C1.71687 65.3726 0.791175 64.4867 0.759347 62.9643Z" fill="#0CDE89"/>
</g>
</g>
</svg>
