<svg width="47" height="50" viewBox="0 0 47 50" fill="none" xmlns="http://www.w3.org/2000/svg">
<path fill-rule="evenodd" clip-rule="evenodd" d="M12.0417 3.63489C0.577861 8.10022 -5.34188 23.297 6.39962 38.6078C40.8158 83.473 73.4846 -20.297 12.0417 3.63489Z" fill="#4D2456"/>
<path d="M14.974 11.2214C14.974 9.64056 14.974 8.06792 14.974 6.49528C14.974 5.6234 15.6762 4.81671 16.5498 4.69448C19.0565 4.35225 21.5633 4.01002 24.07 3.66779C24.9436 3.54556 25.6458 4.15669 25.6458 5.02857C25.6458 6.60121 25.6458 8.182 25.6458 9.75464C25.6458 10.6265 24.9436 11.4332 24.07 11.5473C22.5512 11.7591 21.0325 11.9629 19.5056 12.1747C19.7261 13.5844 19.9384 14.9941 20.1507 16.4037C19.1382 15.1081 18.1257 13.8044 17.1051 12.5007C16.9254 12.5332 16.7376 12.5577 16.5498 12.5821C15.6762 12.6962 14.974 12.0932 14.974 11.2214Z" fill="#4D2456"/>
<path d="M14.7698 11.2214V6.49529C14.7698 6.00638 14.9658 5.54192 15.2842 5.18339C15.6027 4.82486 16.0354 4.57226 16.5253 4.50708L24.0455 3.47223C24.1271 3.46408 24.2088 3.45593 24.2823 3.45593C24.6823 3.45593 25.0416 3.59446 25.3192 3.83076C25.5887 4.06706 25.7765 4.40115 25.8255 4.79227C25.8418 4.86561 25.85 4.94709 25.85 5.02857V9.75465C25.85 10.2436 25.654 10.708 25.3356 11.0665C25.0171 11.4251 24.5762 11.6777 24.0945 11.7429L19.7343 12.3458L20.3466 16.3793C20.363 16.4852 20.2895 16.583 20.1833 16.5993C20.1017 16.6156 20.0282 16.5749 19.9874 16.5097L17.0234 12.7125L16.5743 12.7777C16.4927 12.7859 16.411 12.794 16.3375 12.794C15.9375 12.794 15.5782 12.6555 15.3006 12.4192C15.0311 12.1829 14.8433 11.8488 14.7862 11.4577C14.778 11.3762 14.7698 11.3028 14.7698 11.2214ZM15.1699 6.49529V11.2214C15.1699 11.2865 15.1699 11.3436 15.1781 11.4006C15.2189 11.7021 15.3577 11.9466 15.5619 12.1177C15.766 12.2969 16.0354 12.3947 16.3375 12.3947C16.4029 12.3947 16.46 12.3947 16.5253 12.3866L17.0806 12.3051C17.1459 12.2969 17.2194 12.3295 17.2602 12.3866L19.8404 15.6867L19.3097 12.1992C19.3015 12.0932 19.375 11.9955 19.4811 11.9792L24.0455 11.3517C24.4292 11.3028 24.7803 11.0991 25.0334 10.8058C25.2947 10.5124 25.4499 10.1458 25.4499 9.75465V5.02857C25.4499 4.96339 25.4417 4.8982 25.4417 4.84116C25.4009 4.54782 25.2621 4.30337 25.0579 4.1241C24.8538 3.95299 24.5844 3.84706 24.2823 3.84706C24.2169 3.84706 24.1598 3.8552 24.0945 3.86335L16.5743 4.89005C16.1906 4.94709 15.8395 5.1508 15.5864 5.44414C15.3251 5.73749 15.1699 6.10416 15.1699 6.49529Z" fill="#FBBE07"/>
<path d="M32.1126 14.6111C32.1126 13.0385 32.1126 11.4577 32.1126 9.88504C32.1126 9.01316 31.4022 8.19017 30.5286 8.0435C28.0219 7.63608 25.5152 7.22866 23.0085 6.81309C22.143 6.67457 21.4326 7.26125 21.4326 8.13313C21.4326 9.71392 21.4326 11.2866 21.4326 12.8592C21.4326 13.7311 22.143 14.5541 23.0085 14.7007C23.1963 14.7252 23.3841 14.7578 23.5719 14.7904C23.0819 15.3852 22.6002 15.9719 22.1185 16.5667C23.4004 16.1023 24.6823 15.646 25.9724 15.1815C27.4911 15.4341 29.0099 15.6786 30.5286 15.9312C31.4022 16.0697 32.1126 15.483 32.1126 14.6111Z" fill="#FBBE07"/>
<path d="M13.2184 27.1026C12.5489 27.1026 11.9365 26.8337 11.3895 26.3122C10.9159 25.8396 10.6791 25.31 10.6791 24.7151C10.6791 24.1285 10.8832 23.5499 11.2833 22.9632L11.4139 22.7432L11.0792 22.5232C10.3116 21.9936 9.92789 21.3498 9.92789 20.5839C9.92789 20.3557 9.96055 20.1194 10.034 19.875C10.4423 18.3349 11.4303 17.3653 12.9898 16.966C13.2021 16.9171 13.4226 16.9008 13.6349 16.9008C14.1166 16.9008 14.5902 17.0149 15.0556 17.2593C15.4149 17.4468 15.7007 17.7157 15.9211 18.0579C16.1089 18.4327 16.1987 18.7831 16.1987 19.1172C16.1987 19.5816 16.0028 20.0054 15.5945 20.3639C15.0883 20.8202 14.4922 21.0484 13.7982 21.0484C13.3817 21.0484 13.047 20.918 12.7939 20.6572C12.6306 20.4698 12.5489 20.2743 12.5489 20.0787C12.5489 19.7283 12.7367 19.4839 13.1041 19.3616C13.1613 19.3372 13.2266 19.329 13.2838 19.329C13.4144 19.329 13.5369 19.3698 13.6594 19.4431C13.7818 19.5165 13.888 19.549 13.9941 19.549C14.1574 19.549 14.3289 19.4839 14.5085 19.3453C14.6473 19.2394 14.7208 19.1335 14.7208 19.0113C14.7208 18.9053 14.6637 18.7994 14.5494 18.6853C14.2718 18.4572 13.9778 18.3431 13.6594 18.3431C13.5369 18.3431 13.4144 18.3594 13.2838 18.392C12.3366 18.669 11.7406 19.2802 11.4793 20.2172C11.4548 20.3313 11.4384 20.4372 11.4384 20.5269C11.4384 21.0972 11.8467 21.4395 12.6632 21.5617C13.0551 21.6187 13.3083 21.6676 13.4307 21.7002C13.7165 21.8225 13.8798 21.961 13.9043 22.1076C13.9288 22.2543 13.9451 22.3521 13.9451 22.3847C13.9451 22.7025 13.741 22.9632 13.3409 23.1588C12.9 23.3706 12.5652 23.6721 12.3448 24.0633C12.2141 24.2914 12.1488 24.5033 12.1488 24.707C12.1488 24.8537 12.206 25.0166 12.3284 25.1796C12.5734 25.4811 12.8673 25.6278 13.2103 25.6278C13.3083 25.6278 13.4226 25.6196 13.5287 25.5952C14.2473 25.3507 14.5984 24.9677 14.5984 24.4462L14.5902 24.2018C14.6392 23.7292 14.8841 23.4847 15.3087 23.4684C15.472 23.4684 15.6272 23.5255 15.766 23.6314C15.9619 23.7944 16.0599 24.0714 16.0599 24.4462C16.0599 24.6011 16.0436 24.7559 16.0109 24.9107C15.7578 25.9618 15.1209 26.6463 14.084 26.9559C13.7818 27.0537 13.4961 27.1026 13.2184 27.1026ZM17.7338 27.176C17.644 27.176 17.546 27.1597 17.4398 27.1271C17.1296 27.0048 16.9744 26.7848 16.9744 26.467C16.9744 26.2226 17.497 24.9759 18.534 22.7432C17.448 20.1439 16.8438 18.7668 16.7458 18.6201C16.607 18.4001 16.5417 18.2046 16.5417 18.0334C16.5417 17.8216 16.6315 17.6423 16.8111 17.4875C16.9581 17.3816 17.1214 17.3245 17.301 17.3245C17.644 17.3408 17.9216 17.5771 18.142 18.0416C18.5503 18.995 18.9586 19.9565 19.3505 20.918C19.4975 20.7143 19.9465 19.7772 20.6896 18.1068C20.8692 17.6423 21.1223 17.4142 21.4653 17.4142C21.5959 17.4142 21.7184 17.4549 21.8409 17.5282C22.0695 17.6749 22.1756 17.8705 22.1756 18.1068C22.1756 18.2942 22.1021 18.5549 21.947 18.8727C21.4081 20.0298 20.8284 21.3254 20.1997 22.7677L21.3918 25.1959C21.6449 25.6929 21.7755 26.0352 21.7755 26.2389C21.7755 26.4996 21.6449 26.7115 21.3918 26.85C21.2693 26.9071 21.155 26.9315 21.057 26.9315C20.8039 26.9315 20.5916 26.793 20.412 26.5078C20.2242 26.1737 20.0445 25.8315 19.8894 25.4892C19.7261 25.147 19.5546 24.8048 19.3668 24.4707C18.8034 25.7174 18.5095 26.3937 18.485 26.4915C18.2808 26.9478 18.0277 27.176 17.7338 27.176ZM27.483 27.7952C27.238 27.7871 27.0584 27.7056 26.9277 27.5589C26.7971 27.4041 26.7318 27.2167 26.7236 26.9804L26.7073 25.8885C26.3399 26.0107 25.9643 26.1167 25.5968 26.2226C25.3764 26.2796 25.1314 26.3122 24.8783 26.3122C24.6578 26.3122 24.4374 26.2878 24.2169 26.2389C23.3514 26.0189 22.9105 25.5137 22.9105 24.707C22.9105 24.4055 23.0003 24.0959 23.1881 23.7862C23.7433 22.9551 24.6823 22.4906 26.0133 22.401L26.9033 22.3602C26.9277 22.0669 26.9359 21.7817 26.9359 21.4965C26.8869 19.6142 26.6093 18.6772 26.1031 18.6772C25.9153 18.6772 25.6948 18.7831 25.4417 19.0113C24.6823 19.6631 24.1353 20.4698 23.7923 21.415C23.6454 21.9202 23.3841 22.1647 23.0003 22.1647C22.9513 22.1647 22.9023 22.1647 22.8615 22.1565C22.5022 22.0425 22.3226 21.7899 22.3226 21.4069C22.3226 21.2684 22.3389 21.138 22.3879 21.0076C22.7962 19.7772 23.4902 18.7505 24.4782 17.9194C25.0579 17.4468 25.6213 17.2023 26.1684 17.1942C26.7236 17.1942 27.2054 17.4468 27.6136 17.952C28.1444 18.7179 28.4138 19.8668 28.4138 21.4069C28.4138 21.7165 28.3567 23.0692 28.2587 25.4729C28.2423 26.133 28.2097 26.6708 28.177 27.0863C28.1117 27.5426 27.8749 27.7789 27.483 27.7952ZM24.7966 24.8455L24.9518 24.8292C25.6132 24.7559 26.2174 24.6011 26.7563 24.3811L26.7726 23.9084C26.5522 23.8677 26.3725 23.8514 26.2582 23.8514C25.7846 23.8514 25.3274 23.9573 24.9028 24.161C24.617 24.3159 24.4782 24.4788 24.4782 24.6418C24.4782 24.7722 24.5843 24.8455 24.7966 24.8455ZM36.7096 26.8256C36.2769 26.8093 36.0482 26.573 36.0237 26.1167C36.0237 25.3263 36.0646 24.0714 36.138 22.3358L36.1544 21.5454C36.1544 20.8039 36.0972 20.4291 35.9747 20.4291C35.689 20.4291 35.3705 21.6106 35.0031 23.9818L34.799 25.3752C34.7173 25.9048 34.456 26.1737 34.0396 26.1737C33.5579 26.133 33.3129 25.8315 33.3129 25.2529C33.2313 21.2928 33.0761 19.3046 32.8638 19.3046C32.7413 19.3046 32.578 19.5816 32.3739 20.1439C31.9248 21.3987 31.6717 23.2892 31.5982 25.8233C31.5737 26.4263 31.3288 26.7441 30.8634 26.793C30.4959 26.793 30.251 26.6219 30.1285 26.2715C30.0387 25.9537 29.9734 25.6359 29.9244 25.31C29.4671 23.0284 29.1895 20.8691 29.0915 18.8401C29.0915 18.6772 29.1242 18.5224 29.1813 18.3594C29.2385 18.2046 29.3283 18.0823 29.4508 18.0009C29.5733 17.9194 29.7039 17.8786 29.8427 17.8786C30.2428 17.8949 30.4714 18.1149 30.5367 18.5468L30.749 20.8039C31.2308 19.3209 31.6064 18.4164 31.8677 18.0823C32.1861 17.7238 32.529 17.5445 32.9046 17.5445C33.3374 17.5527 33.7048 17.7808 33.9906 18.2372C34.1866 18.5957 34.3662 19.1416 34.5295 19.875C34.6928 19.5572 34.8398 19.3046 34.9786 19.1172C35.3215 18.5386 35.7053 18.2535 36.1299 18.2535C36.4973 18.2535 36.8076 18.4164 37.0607 18.7424C37.3302 19.1742 37.4771 19.6468 37.4935 20.1602C37.5343 20.6491 37.5506 21.1869 37.5506 21.7817C37.5425 23.118 37.5261 24.4136 37.4935 25.6522C37.4935 26.4344 37.2322 26.8256 36.7096 26.8256Z" fill="white"/>
<path d="M13.5451 41.0608C13.2348 41.0608 12.9817 40.8978 12.7694 40.5719C12.6959 40.4089 12.6469 40.2541 12.6224 40.0912C12.1162 38.2496 11.8631 36.3266 11.8631 34.3139C11.8631 33.0591 11.9366 31.739 12.0835 30.362L11.6671 30.3212C11.1935 30.1908 10.9404 29.9057 10.9241 29.4575C10.9241 28.716 11.7406 28.3493 13.3736 28.3493C13.9452 28.3493 14.5167 28.4145 15.0883 28.553C16.7948 29.0501 17.889 30.1664 18.3625 31.8857C18.4279 32.1872 18.4605 32.4805 18.4605 32.7739C18.4605 33.3035 18.3544 33.825 18.1421 34.3302C17.448 35.9925 16.2723 37.1659 14.6147 37.8422C14.4596 37.9155 14.2718 38.0052 14.035 38.1111C14.3126 39.3985 14.4514 40.0749 14.4514 40.14C14.4514 40.3438 14.3943 40.523 14.28 40.6778C14.1003 40.9304 13.8554 41.0608 13.5451 41.0608ZM13.8472 36.1718C13.9044 36.1636 13.9615 36.1392 14.0187 36.1066C15.072 35.6747 15.8395 34.9495 16.3294 33.9228C16.5335 33.4991 16.6315 33.0917 16.6315 32.7168C16.6315 32.0161 16.3049 31.3887 15.6435 30.8427C15.1863 30.4271 14.6555 30.2234 14.0513 30.2234C13.937 30.6472 13.8472 31.2583 13.7737 32.0731C13.7084 32.8798 13.6757 33.6784 13.6757 34.4606C13.6757 35.2429 13.7084 35.8051 13.7819 36.1555L13.8472 36.1718ZM25.2376 41.4764C24.9355 41.4601 24.7069 41.3623 24.5517 41.183C24.3884 40.9956 24.3068 40.7593 24.2986 40.4741L24.2823 39.1215C23.825 39.2763 23.3678 39.4067 22.9105 39.5371C22.6329 39.6104 22.339 39.6511 22.0205 39.6511C21.7592 39.6511 21.4898 39.6185 21.2122 39.5534C20.1425 39.2926 19.6036 38.657 19.6036 37.6629C19.6036 37.2963 19.7179 36.9214 19.9384 36.5384C20.6243 35.5118 21.7919 34.9414 23.4168 34.8273L24.5191 34.7784C24.5517 34.4199 24.5681 34.0613 24.5681 33.711C24.5027 31.3968 24.1598 30.2397 23.5311 30.2397C23.3025 30.2397 23.0248 30.3783 22.7227 30.6472C21.7919 31.4538 21.106 32.4398 20.6814 33.6213C20.5018 34.2325 20.1834 34.5421 19.7179 34.5421C19.6526 34.5421 19.5955 34.5339 19.5383 34.5258C19.0974 34.3873 18.8688 34.0776 18.8688 33.605C18.8688 33.4339 18.9014 33.2709 18.9504 33.108C19.4648 31.6005 20.3222 30.3294 21.5306 29.3027C22.2491 28.716 22.9432 28.4226 23.6127 28.4145C24.2986 28.4145 24.8947 28.7241 25.3927 29.3516C26.0459 30.2886 26.3807 31.7064 26.3807 33.605C26.3807 33.9799 26.3154 35.6584 26.1848 38.6163C26.1684 39.4311 26.1358 40.0912 26.0949 40.6045C26.0051 41.1586 25.7193 41.4519 25.2376 41.4764ZM21.9225 37.8422L22.1185 37.8259C22.935 37.7281 23.6781 37.5407 24.3394 37.2718L24.3558 36.677C24.0863 36.6362 23.874 36.6199 23.7189 36.6199C23.1392 36.6199 22.5839 36.7422 22.0532 36.9948C21.7021 37.1903 21.5306 37.3859 21.5306 37.5814C21.5306 37.7526 21.6613 37.8422 21.9225 37.8422ZM29.4182 40.3438C28.7078 40.3438 28.2587 39.9771 28.0627 39.2356C27.7851 38.0215 27.6463 36.6607 27.6382 35.1614C27.6382 33.8169 27.7116 32.4642 27.8749 31.1116C27.9158 30.8998 27.9403 30.6635 27.9403 30.3946L27.679 30.4109C26.9686 30.4109 26.6093 30.1175 26.6012 29.539C26.6012 29.1478 26.7971 28.8708 27.1891 28.6997C27.3932 28.6101 27.7851 28.5693 28.3649 28.5693C30.0632 28.5693 31.5656 29.1397 32.8802 30.2886C34.0723 31.3235 34.6602 32.5539 34.6602 33.9799C34.6602 34.3954 34.6194 34.8273 34.5214 35.2673C34.0886 37.0844 33.0925 38.5348 31.5493 39.6022C30.9124 40.0423 30.202 40.2949 29.4182 40.3438ZM29.7856 38.4615C31.4758 37.8422 32.4883 36.5629 32.8149 34.6154C32.8475 34.4036 32.8639 34.208 32.8639 34.0124C32.8639 33.1161 32.5046 32.342 31.7861 31.6983C31.2472 31.2257 30.5694 30.8753 29.7693 30.6635C29.557 31.9428 29.4508 33.2302 29.4508 34.5258C29.4508 35.8377 29.557 37.1496 29.7856 38.4615ZM37.273 40.6778C36.6852 40.6778 36.3259 40.2134 36.1707 39.2845C35.9013 37.5244 35.7543 35.6992 35.7462 33.7924C35.7462 32.4724 35.8768 31.6902 36.1462 31.462C36.3096 31.3235 36.5055 31.2501 36.7341 31.2501C37.3057 31.2664 37.5915 31.6005 37.6078 32.2524C37.6241 32.7739 37.6405 33.3035 37.6405 33.8413V34.2243C37.6405 36.1392 37.7874 37.8992 38.0977 39.5208C38.1222 39.6348 38.1304 39.7408 38.1304 39.8386C38.1304 40.2378 37.9344 40.5067 37.5425 40.6452C37.4445 40.6697 37.3547 40.6778 37.273 40.6778ZM36.9546 30.4923C36.579 30.4842 36.2932 30.2968 36.0809 29.9382C35.9911 29.7671 35.9503 29.596 35.9503 29.4249C35.9503 28.993 36.1299 28.6589 36.4729 28.4145C36.6362 28.3086 36.7995 28.2515 36.9709 28.2515C37.1097 28.2515 37.2485 28.2923 37.3792 28.3656C37.7303 28.5449 37.9099 28.879 37.9099 29.3679C37.8936 29.6612 37.8364 29.8812 37.7303 30.0279C37.518 30.3375 37.2649 30.4923 36.9546 30.4923Z" fill="#FBBE07"/>
<path d="M26.1357 9.95021C26.0296 9.92577 25.9561 9.82799 25.9724 9.72206C25.9888 9.61613 26.0949 9.54279 26.201 9.55909L29.8427 10.1539C29.9489 10.1702 30.0223 10.268 30.006 10.3821C29.9897 10.488 29.8835 10.5613 29.7774 10.545L26.1357 9.95021Z" fill="#4D2456"/>
<path d="M23.1636 11.2214C23.0575 11.2051 22.984 11.0991 23.0085 10.9932C23.0248 10.8873 23.131 10.814 23.2371 10.8384L29.8427 12.0281C29.9489 12.0444 30.0224 12.1421 30.006 12.2562C29.9815 12.3621 29.8835 12.4273 29.7774 12.411L23.1636 11.2214Z" fill="#4D2456"/>
<path d="M23.1636 13.0955C23.0575 13.0792 22.984 12.9733 23.0085 12.8674C23.0248 12.7615 23.131 12.6881 23.2371 12.7044L29.8427 13.8941C29.9489 13.9185 30.0224 14.0163 30.006 14.1222C29.9815 14.2282 29.8835 14.3015 29.7774 14.2852L23.1636 13.0955Z" fill="#4D2456"/>
<path d="M24.0618 5.8271C24.1679 5.8108 24.2659 5.88414 24.2823 5.99006C24.2986 6.10414 24.2251 6.20192 24.1108 6.21822L16.7785 7.24492C16.6723 7.26122 16.5744 7.18788 16.558 7.08195C16.5417 6.97602 16.6152 6.87009 16.7295 6.8538L24.0618 5.8271Z" fill="#FBBE07"/>
<path d="M20.4446 8.18201C20.5508 8.17387 20.6488 8.2472 20.6651 8.35313C20.6814 8.45906 20.6079 8.55684 20.5018 8.57314L16.7785 9.11908C16.6723 9.13538 16.5744 9.06204 16.558 8.95611C16.5417 8.84203 16.6152 8.74425 16.7213 8.72796L20.4446 8.18201Z" fill="#FBBE07"/>
<path d="M19.1464 10.2109C19.2607 10.1946 19.3587 10.268 19.375 10.3739C19.3913 10.4798 19.3178 10.5858 19.2117 10.6021L16.7867 10.9932C16.6805 11.0095 16.5744 10.9362 16.558 10.8302C16.5417 10.7161 16.6152 10.6184 16.7213 10.6021L19.1464 10.2109Z" fill="#FBBE07"/>
</svg>
