<svg width="12" height="12" viewBox="0 0 12 12" fill="none" xmlns="http://www.w3.org/2000/svg">
<path d="M3.77508 10.875C8.30227 10.875 10.7791 7.12338 10.7791 3.87096C10.7791 3.76549 10.7768 3.65768 10.7721 3.55221C11.2539 3.20376 11.6697 2.77216 12 2.27768C11.5513 2.47733 11.0748 2.60772 10.587 2.6644C11.1006 2.35648 11.4853 1.87277 11.6695 1.30291C11.1863 1.58931 10.6578 1.79134 10.1067 1.90034C9.73542 1.50581 9.24449 1.24459 8.70984 1.15706C8.17519 1.06952 7.6266 1.16056 7.14887 1.41608C6.67115 1.6716 6.2909 2.07738 6.06692 2.57069C5.84295 3.06399 5.78771 3.61734 5.90977 4.14518C4.93125 4.09608 3.97397 3.84188 3.09999 3.39908C2.22601 2.95628 1.45485 2.33475 0.836484 1.57479C0.5222 2.11665 0.426028 2.75785 0.567515 3.36808C0.709002 3.9783 1.07753 4.51175 1.5982 4.86002C1.20731 4.84761 0.824988 4.74237 0.482813 4.55299V4.58346C0.482462 5.15211 0.679049 5.70332 1.03915 6.14342C1.39926 6.58351 1.90066 6.88531 2.45812 6.99752C2.09603 7.0966 1.71599 7.11103 1.34742 7.03971C1.50473 7.52875 1.81079 7.95648 2.22289 8.2632C2.63498 8.56992 3.13256 8.74033 3.64617 8.75065C2.77421 9.43559 1.69709 9.80709 0.588281 9.80534C0.391644 9.80504 0.1952 9.79298 0 9.76924C1.12643 10.4919 2.43677 10.8757 3.77508 10.875Z" fill="white"/>
</svg>
