<svg width="24" height="25" viewBox="0 0 24 25" fill="none" xmlns="http://www.w3.org/2000/svg">
<g id="Clip path group">
<g id="Group">
<path id="Vector" d="M22.8319 9.89709C22.076 9.20791 20.9156 8.97228 19.9641 8.70106C18.8792 8.38537 17.7764 8.15862 16.656 7.98966C16.7405 6.7936 16.7583 5.58867 16.6738 4.39261C16.6249 3.739 16.5448 3.09424 16.4515 2.44952C16.3759 1.95598 16.2825 1.47134 16.0602 1.01337C15.5933 0.0440776 14.5262 -0.249342 13.5747 0.21752C13.0634 0.47096 12.6899 0.915591 12.3253 1.3291C11.9029 1.83153 11.4671 2.32952 11.0447 2.83195L8.34585 5.98882C6.97194 5.68202 5.58915 5.44637 4.18856 5.32632C3.16147 5.24184 1.3607 4.91724 0.733775 6.02882C0.106846 7.1404 1.30289 8.50544 1.93871 9.33245C2.65012 10.2484 3.46823 11.0709 4.21521 11.9557C3.44156 12.7961 2.72127 13.6853 2.05877 14.628C1.38737 15.5795 0.667083 16.6155 0.235791 17.7004C0.0312605 18.1939 -0.11103 18.7764 0.115732 19.2788C0.34694 19.7902 0.862713 20.1103 1.39627 20.1947C2.61011 20.3726 3.82393 19.8657 4.92661 19.4211C6.25161 18.8964 7.52327 18.2517 8.77268 17.5714C9.76421 19.6923 10.8269 21.7643 12.4498 23.4939C13.1479 24.232 14.2995 25.1213 15.1932 24.1209C15.6022 23.654 15.7089 23.076 15.8201 22.4935C15.9579 21.7554 16.0646 21.0262 16.158 20.2882C16.3625 18.7453 16.5048 17.189 16.6249 15.6373C17.6698 15.1037 18.7058 14.5524 19.7417 14.0011C20.2931 13.7121 20.8444 13.423 21.3958 13.134C21.8626 12.8984 22.3295 12.6761 22.7296 12.3293C23.4588 11.6712 23.6011 10.5863 22.8319 9.89709ZM21.3558 11.9602C20.7777 12.267 20.1952 12.5649 19.6083 12.8672C18.3589 13.5209 17.114 14.2012 15.8557 14.837C15.6511 14.9392 15.5844 15.1082 15.5933 15.2772C15.5933 15.2861 15.5933 15.2949 15.5933 15.2949C15.4644 16.9089 15.3221 18.5185 15.1176 20.1236C15.0064 20.9195 14.8819 21.7198 14.7352 22.5157C14.6685 22.8447 14.6062 23.1426 14.3973 23.4139C14.2461 23.6184 14.0683 23.4717 13.8637 23.3472C13.3302 23.0226 12.8944 22.4224 12.4987 21.9466C12.0807 21.4309 11.7072 20.875 11.3693 20.3104C10.6401 19.1143 10.0621 17.8426 9.47523 16.5665C9.36407 16.3309 9.15953 16.2687 8.96389 16.3131C8.8972 16.3131 8.82161 16.3398 8.74158 16.3798C7.40769 17.1179 6.05157 17.8294 4.6332 18.3985C3.9707 18.6608 3.27707 18.9587 2.5701 19.0965C2.17883 19.1721 1.30731 19.3188 1.085 18.8653C0.880466 18.4429 1.37405 17.7271 1.56968 17.3714C1.89426 16.7933 2.24106 16.2331 2.60565 15.6906C3.40154 14.4946 4.28637 13.3652 5.28679 12.3293C5.34459 12.2803 5.38906 12.2092 5.40685 12.1425C5.42463 12.1158 5.4157 12.0936 5.4246 12.0669C5.43349 12.0224 5.4424 11.9913 5.4424 11.9469C5.4424 11.9202 5.4246 11.898 5.4246 11.8713C5.39792 11.769 5.35793 11.6667 5.28679 11.5823C4.58427 10.7152 3.80174 9.91937 3.08144 9.06123C2.72573 8.63883 2.39222 8.1942 2.09877 7.72734C1.92092 7.46501 1.46295 6.87808 1.65859 6.54016C1.83644 6.23336 2.48115 6.2956 2.77016 6.30449C3.37931 6.32227 4.0018 6.3623 4.61094 6.42455C5.83368 6.5446 7.04754 6.77137 8.24359 7.04259C8.43034 7.18487 8.68375 7.21155 8.87939 6.98479C9.83979 5.86432 10.7869 4.75272 11.7473 3.63225C12.2053 3.0987 12.6632 2.55625 13.1301 2.01824C13.468 1.61807 13.926 1.00895 14.5218 1.03563C15.0242 1.0623 15.1932 1.61363 15.2954 2.01824C15.4466 2.63628 15.5088 3.28991 15.5667 3.93463C15.7045 5.38412 15.7045 6.85583 15.5756 8.30533C15.5756 8.32311 15.5845 8.33199 15.5845 8.34088C15.5756 8.36756 15.5667 8.39871 15.5667 8.42539C15.5667 8.74107 15.8023 8.91895 16.0913 8.95007C17.3629 9.10125 18.6213 9.40803 19.8529 9.77263C20.4042 9.9327 20.9644 10.0883 21.4891 10.3062C21.7959 10.4262 22.3384 10.6619 22.3117 11.0709C22.2806 11.5022 21.6759 11.7912 21.3558 11.9602Z" fill="#3E0A77"/>
<path id="Vector_2" d="M22.3118 11.0753C22.2762 11.4977 21.676 11.7867 21.3514 11.9601C20.7734 12.2669 20.1909 12.5648 19.604 12.8671C18.3546 13.5207 17.1096 14.2011 15.8513 14.8369C15.6468 14.9391 15.5801 15.1081 15.589 15.2771C15.589 15.286 15.589 15.2948 15.589 15.2948C15.46 16.9088 15.3177 18.5184 15.1132 20.1235C15.002 20.9194 14.8776 21.7197 14.7308 22.5156C14.6641 22.8446 14.6019 23.1425 14.3929 23.4138C14.2417 23.6183 14.0639 23.4716 13.8594 23.3471C13.3258 23.0225 12.89 22.4223 12.4943 21.9465C12.0764 21.4308 11.7029 20.8749 11.365 20.3103C10.6358 19.1142 10.0578 17.8425 9.47087 16.5664C9.35971 16.3308 9.15517 16.2686 8.95953 16.313C8.89284 16.313 8.81725 16.3397 8.73722 16.3797C7.40332 17.1178 6.0472 17.8292 4.62883 18.3984C3.96633 18.6607 3.2727 18.9586 2.56574 19.0964C2.17446 19.172 1.303 19.3187 1.08069 18.8652C0.876157 18.4428 1.36968 17.727 1.56532 17.3713C1.8899 16.7932 2.23669 16.233 2.60129 15.6905C3.39718 14.4945 4.28201 13.3651 5.28243 12.3292C5.34023 12.2802 5.3847 12.2091 5.40248 12.1424C5.42027 12.1157 5.41134 12.0935 5.42023 12.0668C5.42913 12.0223 5.43804 11.9912 5.43804 11.9468C5.43804 11.9201 5.42023 11.8979 5.42023 11.8712C5.39356 11.7689 5.35357 11.6666 5.28243 11.5822C4.57991 10.7151 3.79738 9.91927 3.07708 9.06113C2.72137 8.63873 2.38786 8.1941 2.0944 7.72724C1.91655 7.46491 1.45859 6.87797 1.65422 6.54005C1.83208 6.23326 2.47679 6.29549 2.7658 6.30439C3.37494 6.32217 3.99743 6.3622 4.60658 6.42445C5.82931 6.5445 7.04317 6.77126 8.23923 7.04249C8.42598 7.18477 8.67939 7.21145 8.87502 6.98469C9.83543 5.86422 10.7825 4.75262 11.7429 3.63215C12.2009 3.09859 12.6589 2.55614 13.1257 2.01814C13.4636 1.61797 13.9216 1.00885 14.5174 1.03552C15.0198 1.0622 15.1888 1.61353 15.2911 2.01814C15.4422 2.63618 15.5045 3.28981 15.5623 3.93452C15.7001 5.38402 15.7001 6.85573 15.5712 8.30523C15.5712 8.32301 15.5801 8.33188 15.5801 8.34078C15.5712 8.36745 15.5623 8.39861 15.5623 8.42528C15.5623 8.74097 15.798 8.91885 16.087 8.94997C17.3586 9.10115 18.6169 9.40793 19.8485 9.77253C20.3999 9.9326 20.9601 10.0882 21.4847 10.3061C21.796 10.4306 22.3385 10.6707 22.3118 11.0753Z" fill="#FBDC2E"/>
</g>
</g>
</svg>
