<svg width="121" height="40" viewBox="0 0 121 40" fill="none" xmlns="http://www.w3.org/2000/svg">
<g id="Group">
<g id="Group_2">
<g id="&#60;Group&#62;">
<g id="&#60;Group&#62;_2">
<g id="&#60;Group&#62;_3">
<path id="&#60;Path&#62;" d="M25.3384 20.3007C25.3492 19.466 25.5715 18.6477 25.9847 17.9217C26.3979 17.1957 26.9885 16.5858 27.7016 16.1486C27.2486 15.5035 26.651 14.9725 25.9562 14.598C25.2614 14.2234 24.4887 14.0156 23.6992 13.991C22.0153 13.8147 20.3828 14.9958 19.5247 14.9958C18.6499 14.9958 17.3287 14.0085 15.906 14.0376C14.9858 14.0673 14.0889 14.3341 13.3028 14.8122C12.5168 15.2903 11.8683 15.9632 11.4205 16.7655C9.48111 20.1139 10.9278 25.035 12.7856 27.7416C13.7151 29.0669 14.8014 30.5474 16.2228 30.4949C17.6138 30.4374 18.1333 29.6104 19.8123 29.6104C21.4757 29.6104 21.9631 30.4949 23.4133 30.4615C24.9059 30.4374 25.8463 29.1303 26.7432 27.7924C27.411 26.848 27.9249 25.8043 28.2659 24.6999C27.3987 24.3341 26.6587 23.722 26.1382 22.9397C25.6176 22.1574 25.3394 21.2396 25.3384 20.3007V20.3007Z" fill="white"/>
<path id="&#60;Path&#62;_2" d="M22.5991 12.2109C23.4129 11.2367 23.8139 9.98451 23.7168 8.72028C22.4735 8.8505 21.325 9.44306 20.5002 10.3799C20.0969 10.8376 19.788 11.37 19.5913 11.9468C19.3945 12.5235 19.3136 13.1333 19.3533 13.7413C19.9751 13.7477 20.5904 13.6132 21.1526 13.3482C21.7148 13.0831 22.2094 12.6942 22.5991 12.2109Z" fill="white"/>
</g>
</g>
<g id="Group_3">
<path id="Vector" d="M42.921 27.1397H38.1743L37.0344 30.4961H35.0239L39.5199 18.0781H41.6088L46.1047 30.4961H44.06L42.921 27.1397ZM38.666 25.5908H42.4285L40.5737 20.1436H40.5218L38.666 25.5908Z" fill="white"/>
<path id="Vector_2" d="M55.8146 25.9697C55.8146 28.7832 54.3045 30.5908 52.0256 30.5908C51.4484 30.6209 50.8743 30.4883 50.369 30.2082C49.8638 29.9281 49.448 29.5117 49.169 29.0068H49.1259V33.4912H47.2623V21.4424H49.0662V22.9482H49.1005C49.3922 22.4458 49.8151 22.0316 50.3242 21.7497C50.8332 21.4679 51.4094 21.3289 51.9914 21.3477C54.2956 21.3477 55.8146 23.1641 55.8146 25.9697ZM53.899 25.9697C53.899 24.1367 52.9491 22.9316 51.4997 22.9316C50.0758 22.9316 49.1181 24.1621 49.1181 25.9697C49.1181 27.794 50.0758 29.0156 51.4997 29.0156C52.9491 29.0156 53.899 27.8193 53.899 25.9697Z" fill="white"/>
<path id="Vector_3" d="M65.8074 25.9697C65.8074 28.7832 64.2973 30.5908 62.0184 30.5908C61.4412 30.6209 60.8671 30.4883 60.3618 30.2082C59.8566 29.9281 59.4408 29.5117 59.1618 29.0068H59.1187V33.4912H57.2551V21.4424H59.0589V22.9482H59.0932C59.385 22.4458 59.8079 22.0316 60.317 21.7497C60.826 21.4679 61.4022 21.3289 61.9841 21.3477C64.2885 21.3477 65.8074 23.1641 65.8074 25.9697ZM63.8918 25.9697C63.8918 24.1367 62.9419 22.9316 61.4925 22.9316C60.0686 22.9316 59.1109 24.1621 59.1109 25.9697C59.1109 27.7939 60.0686 29.0156 61.4925 29.0156C62.9419 29.0156 63.8918 27.8193 63.8918 25.9697H63.8918Z" fill="white"/>
<path id="Vector_4" d="M72.4118 27.0361C72.5499 28.2676 73.7495 29.0761 75.3889 29.0761C76.9597 29.0761 78.0898 28.2675 78.0898 27.1572C78.0898 26.1933 77.4082 25.6162 75.7943 25.2207L74.1804 24.833C71.8938 24.2822 70.8322 23.2158 70.8322 21.4853C70.8322 19.3427 72.7046 17.871 75.3634 17.871C77.9948 17.871 79.7987 19.3427 79.8594 21.4853H77.9781C77.8655 20.246 76.8382 19.498 75.337 19.498C73.8357 19.498 72.8084 20.2548 72.8084 21.3564C72.8084 22.2343 73.4645 22.7509 75.0696 23.1464L76.4416 23.4823C78.9966 24.0849 80.0582 25.1083 80.0582 26.9247C80.0582 29.248 78.2024 30.703 75.2508 30.703C72.4891 30.703 70.6245 29.2821 70.5041 27.036L72.4118 27.0361Z" fill="white"/>
<path id="Vector_5" d="M84.0802 19.2998V21.4424H85.8067V22.9141H84.0802V27.9053C84.0802 28.6807 84.4259 29.042 85.1849 29.042C85.3898 29.0384 85.5945 29.0241 85.7979 28.999V30.4619C85.4567 30.5255 85.1099 30.5543 84.7628 30.5478C82.9246 30.5478 82.2078 29.8593 82.2078 28.1035V22.9141H80.8877V21.4424H82.2078V19.2998H84.0802Z" fill="white"/>
<path id="Vector_6" d="M86.8066 25.9697C86.8066 23.1211 88.4891 21.3311 91.1126 21.3311C93.745 21.3311 95.4196 23.1211 95.4196 25.9697C95.4196 28.8262 93.7538 30.6084 91.1126 30.6084C88.4724 30.6084 86.8066 28.8262 86.8066 25.9697ZM93.5207 25.9697C93.5207 24.0156 92.6227 22.8623 91.1126 22.8623C89.6025 22.8623 88.7055 24.0244 88.7055 25.9697C88.7055 27.9316 89.6025 29.0762 91.1126 29.0762C92.6227 29.0762 93.5207 27.9316 93.5207 25.9697H93.5207Z" fill="white"/>
<path id="Vector_7" d="M96.9561 21.4424H98.7335V22.9834H98.7766C98.8969 22.5021 99.1796 22.0768 99.5773 21.7789C99.975 21.481 100.463 21.3287 100.96 21.3476C101.175 21.3469 101.389 21.3702 101.599 21.417V23.1553C101.328 23.0727 101.045 23.0347 100.762 23.043C100.491 23.032 100.221 23.0796 99.9704 23.1825C99.7199 23.2854 99.4946 23.4411 99.3102 23.639C99.1257 23.8369 98.9863 24.0723 98.9016 24.3289C98.817 24.5856 98.789 24.8575 98.8197 25.126V30.4961H96.9561L96.9561 21.4424Z" fill="white"/>
<path id="Vector_8" d="M110.191 27.8369C109.941 29.4805 108.336 30.6084 106.282 30.6084C103.641 30.6084 102.001 28.8437 102.001 26.0127C102.001 23.1729 103.65 21.3311 106.204 21.3311C108.716 21.3311 110.295 23.0518 110.295 25.7969V26.4336H103.883V26.5459C103.853 26.8791 103.895 27.2148 104.005 27.5306C104.116 27.8464 104.293 28.1352 104.524 28.3778C104.755 28.6203 105.035 28.8111 105.345 28.9374C105.656 29.0637 105.99 29.1226 106.325 29.1103C106.765 29.1515 107.207 29.0498 107.585 28.8203C107.963 28.5909 108.256 28.246 108.422 27.8369L110.191 27.8369ZM103.892 25.1348H108.431C108.447 24.8352 108.402 24.5354 108.297 24.2541C108.192 23.9729 108.03 23.7164 107.821 23.5006C107.611 23.2849 107.36 23.1145 107.082 23.0003C106.803 22.8861 106.504 22.8305 106.204 22.8369C105.9 22.8351 105.599 22.8933 105.319 23.008C105.038 23.1227 104.782 23.2918 104.567 23.5054C104.353 23.7191 104.182 23.973 104.066 24.2527C103.95 24.5323 103.891 24.8321 103.892 25.1348V25.1348Z" fill="white"/>
</g>
</g>
</g>
<g id="&#60;Group&#62;_4">
<g id="Group_4">
<path id="Vector_9" d="M38.4324 8.731C38.8231 8.70304 39.2151 8.7619 39.5803 8.90334C39.9454 9.04477 40.2745 9.26525 40.5439 9.54887C40.8132 9.8325 41.0161 10.1722 41.1378 10.5435C41.2595 10.9147 41.2971 11.3083 41.2479 11.6958C41.2479 13.6021 40.2147 14.6978 38.4324 14.6978H36.2711V8.731H38.4324ZM37.2004 13.854H38.3286C38.6078 13.8706 38.8871 13.825 39.1464 13.7204C39.4057 13.6158 39.6383 13.4548 39.8273 13.2493C40.0163 13.0437 40.157 12.7987 40.2391 12.5321C40.3212 12.2654 40.3426 11.9839 40.3019 11.708C40.3397 11.4332 40.3161 11.1534 40.2327 10.8887C40.1494 10.6241 40.0083 10.3811 39.8197 10.1771C39.6311 9.97321 39.3997 9.8134 39.1419 9.70916C38.8841 9.60493 38.6063 9.55884 38.3286 9.57421H37.2004V13.854Z" fill="white"/>
<path id="Vector_10" d="M42.2977 12.4443C42.2693 12.1484 42.3032 11.8499 42.3973 11.5678C42.4914 11.2857 42.6436 11.0264 42.8441 10.8064C43.0446 10.5864 43.289 10.4107 43.5616 10.2904C43.8343 10.1701 44.1291 10.108 44.4272 10.108C44.7253 10.108 45.0201 10.1701 45.2927 10.2904C45.5653 10.4107 45.8097 10.5864 46.0102 10.8064C46.2107 11.0264 46.3629 11.2857 46.457 11.5678C46.5511 11.8499 46.585 12.1484 46.5567 12.4443C46.5856 12.7406 46.552 13.0396 46.4582 13.3221C46.3643 13.6046 46.2122 13.8644 46.0117 14.0848C45.8111 14.3052 45.5666 14.4814 45.2937 14.6019C45.0208 14.7225 44.7256 14.7847 44.4272 14.7847C44.1287 14.7847 43.8335 14.7225 43.5607 14.6019C43.2878 14.4814 43.0432 14.3052 42.8426 14.0848C42.6421 13.8644 42.49 13.6046 42.3961 13.3221C42.3023 13.0396 42.2687 12.7406 42.2977 12.4443V12.4443ZM45.64 12.4443C45.64 11.4683 45.2003 10.8975 44.4286 10.8975C43.654 10.8975 43.2182 11.4683 43.2182 12.4444C43.2182 13.4282 43.654 13.9946 44.4286 13.9946C45.2003 13.9946 45.64 13.4243 45.64 12.4443H45.64Z" fill="white"/>
<path id="Vector_11" d="M52.218 14.6978H51.2936L50.3603 11.3813H50.2898L49.3604 14.6978H48.4448L47.2001 10.1948H48.104L48.9129 13.6308H48.9795L49.9079 10.1948H50.7628L51.6912 13.6308H51.7617L52.5667 10.1948H53.4578L52.218 14.6978Z" fill="white"/>
<path id="Vector_12" d="M54.5047 10.1948H55.3626V10.9102H55.4292C55.5421 10.6532 55.7327 10.4379 55.9742 10.2941C56.2158 10.1503 56.4963 10.0852 56.7767 10.1079C56.9964 10.0914 57.217 10.1245 57.4222 10.2046C57.6274 10.2847 57.8118 10.4098 57.9619 10.5706C58.112 10.7315 58.2239 10.9239 58.2893 11.1337C58.3547 11.3436 58.3719 11.5654 58.3397 11.7827V14.6977H57.4485V12.0059C57.4485 11.2822 57.1332 10.9224 56.4741 10.9224C56.3249 10.9154 56.176 10.9408 56.0375 10.9966C55.8991 11.0524 55.7744 11.1374 55.672 11.2458C55.5696 11.3542 55.4919 11.4834 55.4442 11.6245C55.3966 11.7657 55.3801 11.9154 55.3959 12.0635V14.6978H54.5047L54.5047 10.1948Z" fill="white"/>
<path id="Vector_13" d="M59.7596 8.437H60.6508V14.6977H59.7596V8.437Z" fill="white"/>
<path id="Vector_14" d="M61.8896 12.4443C61.8613 12.1484 61.8952 11.8498 61.9894 11.5677C62.0835 11.2857 62.2357 11.0263 62.4362 10.8063C62.6367 10.5863 62.8812 10.4106 63.1538 10.2903C63.4264 10.17 63.7212 10.1079 64.0194 10.1079C64.3175 10.1079 64.6123 10.17 64.885 10.2903C65.1576 10.4106 65.402 10.5863 65.6025 10.8063C65.8031 11.0263 65.9553 11.2857 66.0494 11.5677C66.1435 11.8498 66.1775 12.1484 66.1491 12.4443C66.178 12.7406 66.1444 13.0396 66.0505 13.3221C65.9567 13.6046 65.8045 13.8644 65.604 14.0848C65.4034 14.3052 65.1588 14.4814 64.8859 14.6019C64.613 14.7224 64.3178 14.7847 64.0194 14.7847C63.7209 14.7847 63.4257 14.7224 63.1528 14.6019C62.8799 14.4814 62.6353 14.3052 62.4348 14.0848C62.2342 13.8644 62.0821 13.6046 61.9882 13.3221C61.8943 13.0396 61.8607 12.7406 61.8896 12.4443V12.4443ZM65.232 12.4443C65.232 11.4683 64.7923 10.8975 64.0206 10.8975C63.246 10.8975 62.8102 11.4683 62.8102 12.4444C62.8102 13.4282 63.246 13.9946 64.0206 13.9946C64.7923 13.9946 65.232 13.4243 65.232 12.4443H65.232Z" fill="white"/>
<path id="Vector_15" d="M67.0873 13.4243C67.0873 12.6138 67.6925 12.1465 68.7668 12.0801L69.9899 12.0098V11.6211C69.9899 11.1455 69.6746 10.877 69.0655 10.877C68.568 10.877 68.2233 11.0591 68.1244 11.3775H67.2616C67.3527 10.604 68.0823 10.1079 69.1066 10.1079C70.2387 10.1079 70.8772 10.6699 70.8772 11.6211V14.6978H70.0193V14.065H69.9488C69.8057 14.292 69.6047 14.477 69.3664 14.6012C69.1281 14.7254 68.8611 14.7843 68.5925 14.772C68.4029 14.7916 68.2113 14.7715 68.03 14.7128C67.8488 14.6541 67.6819 14.5581 67.54 14.4312C67.3982 14.3042 67.2847 14.149 67.2067 13.9756C67.1287 13.8022 67.088 13.6144 67.0873 13.4243V13.4243ZM69.9899 13.0396V12.6631L68.8872 12.7334C68.2654 12.7749 67.9833 12.9858 67.9833 13.3828C67.9833 13.7881 68.3359 14.0239 68.8207 14.0239C68.9627 14.0383 69.1062 14.024 69.2426 13.9819C69.379 13.9398 69.5055 13.8708 69.6146 13.7789C69.7237 13.6871 69.8131 13.5743 69.8776 13.4473C69.9421 13.3203 69.9803 13.1816 69.9899 13.0396V13.0396Z" fill="white"/>
<path id="Vector_16" d="M72.0485 12.4443C72.0485 11.0215 72.782 10.1201 73.9228 10.1201C74.2051 10.1072 74.4851 10.1746 74.7303 10.3145C74.9756 10.4543 75.1758 10.661 75.3076 10.9101H75.3742V8.437H76.2653V14.6977H75.4114V13.9863H75.3409C75.1989 14.2338 74.9917 14.4378 74.7417 14.5763C74.4918 14.7148 74.2086 14.7825 73.9229 14.772C72.7741 14.772 72.0485 13.8706 72.0485 12.4443ZM72.969 12.4443C72.969 13.3994 73.4205 13.9741 74.1755 13.9741C74.9267 13.9741 75.3909 13.3911 75.3909 12.4483C75.3909 11.5098 74.9218 10.9185 74.1755 10.9185C73.4254 10.9185 72.969 11.4971 72.969 12.4443H72.969Z" fill="white"/>
<path id="Vector_17" d="M79.9525 12.4443C79.9241 12.1484 79.958 11.8499 80.0521 11.5678C80.1462 11.2857 80.2984 11.0264 80.4989 10.8064C80.6994 10.5864 80.9438 10.4107 81.2164 10.2904C81.489 10.1701 81.7838 10.108 82.082 10.108C82.3801 10.108 82.6749 10.1701 82.9475 10.2904C83.2201 10.4107 83.4645 10.5864 83.665 10.8064C83.8655 11.0264 84.0177 11.2857 84.1118 11.5678C84.2059 11.8499 84.2398 12.1484 84.2114 12.4443C84.2404 12.7406 84.2068 13.0396 84.113 13.3221C84.0191 13.6046 83.867 13.8644 83.6665 14.0848C83.4659 14.3052 83.2213 14.4814 82.9485 14.6019C82.6756 14.7225 82.3804 14.7847 82.082 14.7847C81.7835 14.7847 81.4883 14.7225 81.2154 14.6019C80.9426 14.4814 80.698 14.3052 80.4974 14.0848C80.2969 13.8644 80.1448 13.6046 80.0509 13.3221C79.9571 13.0396 79.9235 12.7406 79.9525 12.4443V12.4443ZM83.2948 12.4443C83.2948 11.4683 82.8551 10.8975 82.0834 10.8975C81.3088 10.8975 80.873 11.4683 80.873 12.4444C80.873 13.4282 81.3088 13.9946 82.0834 13.9946C82.8551 13.9946 83.2948 13.4243 83.2948 12.4443Z" fill="white"/>
<path id="Vector_18" d="M85.4072 10.1948H86.265V10.9102H86.3316C86.4446 10.6532 86.6351 10.4379 86.8767 10.2941C87.1182 10.1503 87.3988 10.0852 87.6792 10.1079C87.8989 10.0914 88.1195 10.1245 88.3247 10.2046C88.5298 10.2847 88.7143 10.4098 88.8644 10.5706C89.0145 10.7315 89.1264 10.9239 89.1918 11.1337C89.2572 11.3436 89.2744 11.5654 89.2421 11.7827V14.6977H88.351V12.0059C88.351 11.2822 88.0356 10.9224 87.3766 10.9224C87.2274 10.9154 87.0785 10.9408 86.94 10.9966C86.8016 11.0524 86.6769 11.1374 86.5745 11.2458C86.472 11.3542 86.3943 11.4834 86.3467 11.6245C86.299 11.7657 86.2825 11.9154 86.2983 12.0635V14.6978H85.4072V10.1948Z" fill="white"/>
<path id="Vector_19" d="M94.2777 9.07374V10.2153H95.256V10.9639H94.2777V13.2793C94.2777 13.751 94.4726 13.9575 94.9162 13.9575C95.0298 13.9572 95.1432 13.9503 95.256 13.937V14.6772C95.096 14.7058 94.9338 14.721 94.7713 14.7227C93.7802 14.7227 93.3856 14.375 93.3856 13.5068V10.9638H92.6687V10.2153H93.3856V9.07374H94.2777Z" fill="white"/>
<path id="Vector_20" d="M96.4733 8.437H97.3566V10.9185H97.4271C97.5456 10.6591 97.7413 10.4425 97.9877 10.2982C98.2341 10.1538 98.5191 10.0888 98.804 10.1118C99.0225 10.1 99.241 10.1363 99.4439 10.2184C99.6467 10.3004 99.8289 10.4261 99.9775 10.5864C100.126 10.7468 100.237 10.9378 100.303 11.146C100.369 11.3541 100.388 11.5742 100.359 11.7905V14.6978H99.467V12.0098C99.467 11.2905 99.1311 10.9263 98.5014 10.9263C98.3483 10.9137 98.1942 10.9347 98.05 10.9878C97.9059 11.0408 97.775 11.1247 97.6667 11.2334C97.5584 11.3421 97.4753 11.4732 97.4231 11.6173C97.3709 11.7614 97.3509 11.9152 97.3645 12.0679V14.6977H96.4733L96.4733 8.437Z" fill="white"/>
<path id="Vector_21" d="M105.555 13.4819C105.434 13.8935 105.172 14.2495 104.814 14.4876C104.457 14.7258 104.026 14.8309 103.599 14.7847C103.301 14.7925 103.006 14.7357 102.732 14.6182C102.459 14.5006 102.215 14.3252 102.016 14.1041C101.818 13.8829 101.67 13.6214 101.583 13.3375C101.496 13.0537 101.472 12.7544 101.513 12.4605C101.473 12.1656 101.498 11.8656 101.584 11.581C101.671 11.2963 101.818 11.0335 102.015 10.8105C102.213 10.5874 102.456 10.4092 102.729 10.288C103.001 10.1668 103.296 10.1054 103.595 10.1079C104.851 10.1079 105.609 10.9639 105.609 12.3779V12.688H102.421V12.7378C102.407 12.9031 102.427 13.0694 102.482 13.2261C102.536 13.3829 102.623 13.5266 102.736 13.6481C102.849 13.7695 102.986 13.866 103.139 13.9314C103.292 13.9968 103.457 14.0297 103.623 14.0278C103.836 14.0533 104.052 14.0151 104.244 13.9178C104.435 13.8206 104.593 13.6689 104.697 13.4819L105.555 13.4819ZM102.421 12.0308H104.701C104.713 11.8796 104.692 11.7278 104.641 11.5851C104.59 11.4424 104.509 11.3119 104.405 11.2021C104.3 11.0922 104.173 11.0054 104.033 10.9472C103.893 10.8891 103.742 10.8608 103.59 10.8643C103.436 10.8623 103.283 10.8912 103.14 10.9491C102.997 11.0071 102.868 11.0929 102.759 11.2017C102.65 11.3104 102.564 11.4397 102.506 11.5821C102.447 11.7245 102.419 11.8771 102.421 12.0308H102.421Z" fill="white"/>
</g>
</g>
</g>
</svg>
