<svg width="656" height="954" viewBox="0 0 656 954" fill="none" xmlns="http://www.w3.org/2000/svg">
<g clip-path="url(#clip0_124_13194)">
<g opacity="0.6">
<g opacity="0.6">
<path opacity="0.6" d="M656 19.9374L0.000101089 19.9373" stroke="white" stroke-miterlimit="10"/>
<path opacity="0.6" d="M656 38.5858L0.000152792 38.5857" stroke="white" stroke-miterlimit="10"/>
<path opacity="0.6" d="M656 57.2425L0.000101089 57.2425" stroke="white" stroke-miterlimit="10"/>
<path opacity="0.6" d="M656 75.9031L0.000101089 75.903" stroke="white" stroke-miterlimit="10"/>
<path opacity="0.6" d="M656 94.5519L0.000101089 94.5519" stroke="white" stroke-miterlimit="10"/>
<path opacity="0.6" d="M656 113.213L0.000101089 113.212" stroke="white" stroke-miterlimit="10"/>
<path opacity="0.6" d="M656 131.873L0.000101089 131.873" stroke="white" stroke-miterlimit="10"/>
<path opacity="0.6" d="M656 150.522L0.000101089 150.522" stroke="white" stroke-miterlimit="10"/>
<path opacity="0.6" d="M656 169.182L0.000101089 169.182" stroke="white" stroke-miterlimit="10"/>
<path opacity="0.6" d="M656 187.843L0.000101089 187.843" stroke="white" stroke-miterlimit="10"/>
<path opacity="0.6" d="M656 206.488L0.000101089 206.488" stroke="white" stroke-miterlimit="10"/>
<path opacity="0.6" d="M656 225.149L0.000101089 225.149" stroke="white" stroke-miterlimit="10"/>
<path opacity="0.6" d="M656 243.809L0.000101089 243.809" stroke="white" stroke-miterlimit="10"/>
<path opacity="0.6" d="M656 262.458L0.000101089 262.458" stroke="white" stroke-miterlimit="10"/>
<path opacity="0.6" d="M656 281.115L0.000101089 281.115" stroke="white" stroke-miterlimit="10"/>
<path opacity="0.6" d="M656 299.775L0.000101089 299.775" stroke="white" stroke-miterlimit="10"/>
<path opacity="0.6" d="M656 318.424L0.000101089 318.424" stroke="white" stroke-miterlimit="10"/>
<path opacity="0.6" d="M656 337.085L0.000101089 337.085" stroke="white" stroke-miterlimit="10"/>
<path opacity="0.6" d="M656 355.745L0.000101089 355.745" stroke="white" stroke-miterlimit="10"/>
<path opacity="0.6" d="M656 374.394L0.000101089 374.394" stroke="white" stroke-miterlimit="10"/>
<path opacity="0.6" d="M656 393.055L0.000101089 393.055" stroke="white" stroke-miterlimit="10"/>
<path opacity="0.6" d="M656 411.712L0.000101089 411.712" stroke="white" stroke-miterlimit="10"/>
<path opacity="0.6" d="M656 430.36L0.000101089 430.36" stroke="white" stroke-miterlimit="10"/>
<path opacity="0.6" d="M656 449.021L0.000101089 449.021" stroke="white" stroke-miterlimit="10"/>
<path opacity="0.6" d="M656 467.682L0.000101089 467.682" stroke="white" stroke-miterlimit="10"/>
<path opacity="0.6" d="M656 486.33L0.000101089 486.33" stroke="white" stroke-miterlimit="10"/>
<path opacity="0.6" d="M656 504.991L0.000101089 504.991" stroke="white" stroke-miterlimit="10"/>
<path opacity="0.6" d="M656 523.648L0.000101089 523.648" stroke="white" stroke-miterlimit="10"/>
<path opacity="0.6" d="M656 542.297L0.000101089 542.296" stroke="white" stroke-miterlimit="10"/>
<path opacity="0.6" d="M656 560.957L0.000101089 560.957" stroke="white" stroke-miterlimit="10"/>
<path opacity="0.6" d="M656 579.618L0.000101089 579.618" stroke="white" stroke-miterlimit="10"/>
<path opacity="0.6" d="M656 598.263L0.000101089 598.263" stroke="white" stroke-miterlimit="10"/>
<path opacity="0.6" d="M656 616.923L0.000101089 616.923" stroke="white" stroke-miterlimit="10"/>
<path opacity="0.6" d="M656 635.584L0.000101089 635.584" stroke="white" stroke-miterlimit="10"/>
<path opacity="0.6" d="M656 654.233L0.000101089 654.233" stroke="white" stroke-miterlimit="10"/>
<path opacity="0.6" d="M656 672.893L0.000101089 672.893" stroke="white" stroke-miterlimit="10"/>
<path opacity="0.6" d="M656 691.554L0.000101089 691.554" stroke="white" stroke-miterlimit="10"/>
<path opacity="0.6" d="M656 710.203L0.000101089 710.203" stroke="white" stroke-miterlimit="10"/>
<path opacity="0.6" d="M656 728.863L0.000101089 728.863" stroke="white" stroke-miterlimit="10"/>
<path opacity="0.6" d="M656 747.524L0.000101089 747.524" stroke="white" stroke-miterlimit="10"/>
<path opacity="0.6" d="M656 766.169L0.000101089 766.169" stroke="white" stroke-miterlimit="10"/>
<path opacity="0.6" d="M656 784.829L0.000101089 784.829" stroke="white" stroke-miterlimit="10"/>
<path opacity="0.6" d="M656 803.49L0.000101089 803.49" stroke="white" stroke-miterlimit="10"/>
<path opacity="0.6" d="M656 822.135L0.000101089 822.135" stroke="white" stroke-miterlimit="10"/>
<path opacity="0.6" d="M656 840.796L0.000101089 840.796" stroke="white" stroke-miterlimit="10"/>
<path opacity="0.6" d="M656 859.456L0.000101089 859.456" stroke="white" stroke-miterlimit="10"/>
<path opacity="0.6" d="M656 878.105L0.000101089 878.105" stroke="white" stroke-miterlimit="10"/>
<path opacity="0.6" d="M656 896.766L0.000101089 896.766" stroke="white" stroke-miterlimit="10"/>
<path opacity="0.6" d="M656 915.422L0.000101089 915.422" stroke="white" stroke-miterlimit="10"/>
<path opacity="0.6" d="M656 934.075L0.000101089 934.075" stroke="white" stroke-miterlimit="10"/>
</g>
<g opacity="0.6">
<path opacity="0.6" d="M638.733 0L638.733 954" stroke="white" stroke-miterlimit="10"/>
<path opacity="0.6" d="M621.468 0L621.468 954" stroke="white" stroke-miterlimit="10"/>
<path opacity="0.6" d="M604.216 0L604.216 954" stroke="white" stroke-miterlimit="10"/>
<path opacity="0.6" d="M586.95 0L586.95 954" stroke="white" stroke-miterlimit="10"/>
<path opacity="0.6" d="M569.683 0L569.683 954" stroke="white" stroke-miterlimit="10"/>
<path opacity="0.6" d="M552.418 0L552.418 954" stroke="white" stroke-miterlimit="10"/>
<path opacity="0.6" d="M535.152 0L535.152 954" stroke="white" stroke-miterlimit="10"/>
<path opacity="0.6" d="M517.898 0L517.898 954" stroke="white" stroke-miterlimit="10"/>
<path opacity="0.6" d="M500.631 0L500.631 954" stroke="white" stroke-miterlimit="10"/>
<path opacity="0.6" d="M483.365 0L483.365 954" stroke="white" stroke-miterlimit="10"/>
<path opacity="0.6" d="M466.102 0L466.102 954" stroke="white" stroke-miterlimit="10"/>
<path opacity="0.6" d="M448.848 0L448.848 954" stroke="white" stroke-miterlimit="10"/>
<path opacity="0.6" d="M431.581 0L431.581 954" stroke="white" stroke-miterlimit="10"/>
<path opacity="0.6" d="M414.316 0L414.316 954" stroke="white" stroke-miterlimit="10"/>
<path opacity="0.6" d="M397.05 0L397.05 954" stroke="white" stroke-miterlimit="10"/>
<path opacity="0.6" d="M379.783 0L379.783 954" stroke="white" stroke-miterlimit="10"/>
<path opacity="0.6" d="M362.532 0L362.532 954" stroke="white" stroke-miterlimit="10"/>
<path opacity="0.6" d="M345.266 0L345.266 954" stroke="white" stroke-miterlimit="10"/>
<path opacity="0.6" d="M328 0L328 954" stroke="white" stroke-miterlimit="10"/>
<path opacity="0.6" d="M310.734 0L310.734 954" stroke="white" stroke-miterlimit="10"/>
<path opacity="0.6" d="M293.467 0L293.467 954" stroke="white" stroke-miterlimit="10"/>
<path opacity="0.6" d="M276.216 0L276.216 954" stroke="white" stroke-miterlimit="10"/>
<path opacity="0.6" d="M258.951 0L258.951 954" stroke="white" stroke-miterlimit="10"/>
<path opacity="0.6" d="M241.683 0L241.683 954" stroke="white" stroke-miterlimit="10"/>
<path opacity="0.6" d="M224.418 0L224.418 954" stroke="white" stroke-miterlimit="10"/>
<path opacity="0.6" d="M207.153 0L207.153 954" stroke="white" stroke-miterlimit="10"/>
<path opacity="0.6" d="M189.898 0L189.898 954" stroke="white" stroke-miterlimit="10"/>
<path opacity="0.6" d="M172.632 0L172.632 954" stroke="white" stroke-miterlimit="10"/>
<path opacity="0.6" d="M155.365 0L155.365 954" stroke="white" stroke-miterlimit="10"/>
<path opacity="0.6" d="M138.102 0L138.102 954" stroke="white" stroke-miterlimit="10"/>
<path opacity="0.6" d="M120.847 0L120.847 954" stroke="white" stroke-miterlimit="10"/>
<path opacity="0.6" d="M103.581 0L103.581 954" stroke="white" stroke-miterlimit="10"/>
<path opacity="0.6" d="M86.316 0L86.3159 954" stroke="white" stroke-miterlimit="10"/>
<path opacity="0.6" d="M69.0506 0L69.0506 954" stroke="white" stroke-miterlimit="10"/>
<path opacity="0.6" d="M51.7833 0L51.7833 954" stroke="white" stroke-miterlimit="10"/>
<path opacity="0.6" d="M34.5323 0L34.5322 954" stroke="white" stroke-miterlimit="10"/>
<path opacity="0.6" d="M17.2669 0L17.2669 954" stroke="white" stroke-miterlimit="10"/>
</g>
</g>
</g>
<defs>
<clipPath id="clip0_124_13194">
<rect width="954" height="656" fill="white" transform="translate(656) rotate(90)"/>
</clipPath>
</defs>
</svg>
