<svg width="30" height="31" viewBox="0 0 30 31" fill="none" xmlns="http://www.w3.org/2000/svg">
<g id="Clip path group">
<g id="Group">
<path id="Vector" d="M28.6907 12.4332C27.7436 11.5706 26.2808 11.2727 25.0847 10.9303C23.7197 10.5346 22.3325 10.2501 20.9274 10.0367C21.0341 8.5338 21.0563 7.01759 20.9496 5.51474C20.8874 4.69218 20.7896 3.88295 20.674 3.07372C20.5761 2.45569 20.4605 1.84652 20.1849 1.27295C19.598 0.0591056 18.2552 -0.314384 17.0591 0.272528C16.4188 0.592663 15.952 1.14846 15.4896 1.66868C14.956 2.2956 14.4136 2.92698 13.88 3.55391L10.4875 7.52003C8.76234 7.13765 7.02383 6.83975 5.26309 6.68857C3.97366 6.58186 1.71049 6.17724 0.923493 7.57338C0.136497 8.96952 1.63931 10.6858 2.43965 11.7218C3.33335 12.8734 4.36047 13.9094 5.29864 15.0165C4.32935 16.0703 3.42232 17.1908 2.59086 18.3735C1.75051 19.5695 0.843445 20.8678 0.296549 22.2328C0.0386631 22.8509 -0.139174 23.589 0.14539 24.2159C0.4344 24.8561 1.08356 25.2608 1.75495 25.3675C3.28003 25.5898 4.80511 24.9495 6.19236 24.3982C7.85528 23.7357 9.45594 22.9265 11.021 22.0728C12.2705 24.7406 13.5999 27.3417 15.6363 29.5159C16.5122 30.4452 17.9617 31.5612 19.0822 30.3029C19.5935 29.716 19.7314 28.9913 19.8692 28.2576C20.0382 27.3283 20.1804 26.4124 20.296 25.4876C20.5539 23.549 20.7318 21.597 20.883 19.6451C22.1946 18.9737 23.4974 18.2801 24.7957 17.5865C25.4893 17.2219 26.183 16.8617 26.8766 16.4971C27.4635 16.1992 28.0504 15.9236 28.5529 15.4834C29.4821 14.6608 29.6644 13.2958 28.6907 12.4332ZM26.8365 15.0254C26.1118 15.4078 25.3737 15.7812 24.6401 16.1681C23.0705 16.9906 21.5054 17.8444 19.927 18.6402C19.6691 18.7692 19.5846 18.9826 19.598 19.196C19.598 19.2049 19.598 19.2182 19.598 19.2182C19.4379 21.2458 19.2556 23.2688 19.0021 25.2875C18.8643 26.2879 18.7043 27.2927 18.522 28.2932C18.4375 28.7111 18.3619 29.0802 18.0951 29.4225C17.9039 29.6804 17.6772 29.4981 17.4237 29.338C16.7523 28.9334 16.2099 28.1776 15.7075 27.5773C15.1828 26.9282 14.7159 26.2345 14.2891 25.5187C13.3731 24.0158 12.6484 22.4152 11.9103 20.8145C11.7725 20.5166 11.5146 20.441 11.2701 20.4943C11.1856 20.4943 11.0878 20.5255 10.9944 20.5788C9.31813 21.5081 7.61515 22.4018 5.83218 23.1177C5.00072 23.4467 4.12482 23.8202 3.24 23.9936C2.75091 24.0914 1.65269 24.2693 1.37257 23.7046C1.11469 23.171 1.73717 22.2773 1.98172 21.8282C2.38633 21.1035 2.82204 20.401 3.28445 19.7162C4.28487 18.2134 5.39649 16.795 6.65479 15.4922C6.73038 15.43 6.78372 15.3411 6.80595 15.2566C6.82818 15.2255 6.81481 15.1943 6.82815 15.1588C6.83704 15.1054 6.8504 15.061 6.8504 15.0076C6.8504 14.9765 6.82815 14.9454 6.82815 14.9098C6.79702 14.7808 6.74372 14.6519 6.65924 14.5452C5.77443 13.4558 4.79174 12.4554 3.88469 11.3794C3.43562 10.8458 3.02215 10.29 2.64866 9.70758C2.42635 9.37855 1.84833 8.64047 2.09287 8.21363C2.31519 7.83124 3.12887 7.90242 3.48902 7.91576C4.25823 7.93799 5.03631 7.99133 5.80108 8.06692C7.33506 8.21809 8.86014 8.50266 10.363 8.84502C10.5986 9.02732 10.9188 9.05842 11.1633 8.76941C12.3682 7.35994 13.5644 5.96381 14.7693 4.55878C15.3473 3.88738 15.9209 3.20268 16.5078 2.53129C16.9346 2.02885 17.5082 1.26408 18.2552 1.2952C18.8821 1.32632 19.0955 2.01996 19.2245 2.53129C19.4156 3.30939 19.4912 4.13192 19.5668 4.94115C19.7358 6.76414 19.7358 8.60934 19.5757 10.4323C19.5757 10.4546 19.5846 10.4635 19.5846 10.4768C19.5757 10.508 19.5624 10.5524 19.5624 10.5835C19.5624 10.9793 19.8603 11.2016 20.2249 11.246C21.8255 11.4372 23.404 11.824 24.9469 12.282C25.6405 12.4865 26.343 12.6777 27.0055 12.9534C27.3879 13.1046 28.0726 13.4025 28.0415 13.9138C27.9971 14.4474 27.2411 14.812 26.8365 15.0254Z" fill="#3E0A77"/>
<path id="Vector_2" d="M28.0415 13.9139C27.9971 14.4474 27.2412 14.8076 26.8365 15.021C26.1118 15.4034 25.3737 15.7768 24.6401 16.1637C23.0706 16.9862 21.5055 17.84 19.927 18.6358C19.6691 18.7648 19.5847 18.9782 19.598 19.1916C19.598 19.2005 19.598 19.2138 19.598 19.2138C19.4379 21.2414 19.2556 23.2644 19.0022 25.2831C18.8643 26.2835 18.7043 27.2883 18.522 28.2888C18.4375 28.7067 18.3619 29.0758 18.0951 29.4181C17.904 29.676 17.6772 29.4937 17.4238 29.3336C16.7524 28.929 16.2099 28.1732 15.7075 27.5729C15.1828 26.9238 14.7159 26.2301 14.2891 25.5143C13.3731 24.0114 12.6484 22.4108 11.9103 20.8101C11.7725 20.5122 11.5146 20.4366 11.2701 20.4899C11.1856 20.4899 11.0878 20.5211 10.9944 20.5744C9.31815 21.5037 7.61517 22.3974 5.8322 23.1133C5.00074 23.4423 4.12483 23.8158 3.24002 23.9892C2.75093 24.087 1.65271 24.2649 1.37259 23.7002C1.11471 23.1666 1.73719 22.2729 1.98173 21.8238C2.38635 21.0991 2.82206 20.3966 3.28447 19.7118C4.28489 18.209 5.3965 16.7906 6.65481 15.4878C6.7304 15.4256 6.78374 15.3367 6.80597 15.2522C6.8282 15.2211 6.81483 15.1899 6.82817 15.1544C6.83706 15.101 6.85042 15.0566 6.85042 15.0032C6.85042 14.9721 6.82817 14.941 6.82817 14.9054C6.79704 14.7764 6.74374 14.6475 6.65926 14.5408C5.77444 13.4514 4.79176 12.451 3.88471 11.375C3.43564 10.8414 3.02217 10.2857 2.64868 9.70323C2.42637 9.37421 1.84835 8.63607 2.09289 8.20923C2.31521 7.82684 3.12889 7.89802 3.48904 7.91136C4.25825 7.93359 5.03633 7.98693 5.8011 8.06252C7.33507 8.21369 8.86016 8.49826 10.363 8.84062C10.5987 9.02292 10.9188 9.05402 11.1633 8.76501C12.3683 7.35553 13.5644 5.95941 14.7693 4.55437C15.3473 3.88298 15.9209 3.19828 16.5078 2.52689C16.9346 2.02445 17.5082 1.25968 18.2552 1.2908C18.8821 1.32192 19.0955 2.01556 19.2245 2.52689C19.4157 3.30499 19.4913 4.12752 19.5668 4.93675C19.7358 6.75974 19.7358 8.60494 19.5757 10.4279C19.5757 10.4502 19.5846 10.4591 19.5846 10.4724C19.5758 10.5036 19.5624 10.548 19.5624 10.5791C19.5624 10.9749 19.8603 11.1972 20.2249 11.2416C21.8256 11.4328 23.404 11.8196 24.9469 12.2776C25.6405 12.4821 26.343 12.6733 27.0055 12.949C27.3923 13.1046 28.0727 13.4025 28.0415 13.9139Z" fill="#04C2E1"/>
</g>
</g>
</svg>
