<svg width="55" height="82" viewBox="0 0 55 82" fill="none" xmlns="http://www.w3.org/2000/svg">
<g id="Clip path group">
<g id="Group">
<g id="Group_2">
<path id="Vector" d="M51.6198 56.5626C49.8773 48.9995 48.1236 41.4364 46.3812 33.8771C44.7965 27.05 43.6962 19.7799 40.8084 13.3509C39.494 10.4406 37.7291 7.67294 35.2168 5.66764C32.2877 3.3544 28.6526 2.32924 25.0063 1.93494C18.5059 1.2252 11.6676 1.45048 5.1673 1.85229C-1.30676 2.24659 -7.89724 3.31683 -13.8042 6.11449C-19.6286 8.83705 -25.8323 13.6062 -26.9288 20.3582C-27.924 26.5281 -27.203 32.743 -26.2679 38.8903C-24.6382 49.5891 -22.9933 60.3741 -19.7 70.7086C-18.0327 75.981 -16.0198 81.4111 -12.7978 85.9324C-9.51575 90.5326 -5.10332 93.0073 0.386855 93.5743C0.289219 93.0298 0.180318 92.4815 0.0714155 91.922C-2.41456 91.4601 -4.42363 89.8867 -4.55882 87.1529C-4.60388 86.4807 -4.5175 85.8235 -4.36354 85.2039C-4.35603 85.0462 -4.31097 84.9072 -4.22459 84.787C-3.65755 83.0559 -2.39203 81.5613 -0.811071 80.5962C2.23444 78.7186 6.14365 78.3994 9.606 77.7985C13.872 77.0512 18.153 76.319 22.4227 75.6243C29.8806 74.3888 37.4775 73.5851 44.8866 72.0905C48.1461 71.4409 51.7136 70.1416 52.7013 66.5891C53.595 63.3558 52.3558 59.7132 51.6198 56.5626ZM25.8174 23.6628C25.0401 24.3238 23.9248 24.4927 22.9634 24.703C19.9742 25.4015 16.9625 26.0098 13.9471 26.5431C10.9354 27.0538 7.89736 27.4894 4.84434 27.8387C3.76283 27.9626 2.28701 28.3982 1.27685 27.8762C0.41314 27.4368 0.093948 26.2915 -0.232759 25.4353C-1.18659 23.0056 -1.78368 20.4558 -2.03153 17.8422C-2.23807 15.7317 -1.99397 13.7752 -0.172674 12.8514C-0.060016 12.7463 0.0488813 12.6487 0.232889 12.6149C0.383099 12.5848 0.518289 12.5548 0.668499 12.5135L0.679765 12.5285C7.14255 11.139 13.6617 9.83974 20.2634 9.58439C22.7606 9.49051 24.7096 10.1589 25.4494 12.7275C26.1892 15.2849 26.4446 18.1539 26.6736 20.8013C26.7675 21.8866 26.6924 22.9043 25.8174 23.6628Z" fill="#FBBE07"/>
<path id="Vector_2" d="M30.6728 42.2176C29.5237 42.4054 28.3671 41.2713 28.108 39.6678C27.8414 38.0756 28.5699 36.6223 29.734 36.4308C30.8831 36.243 32.0398 37.3771 32.2989 38.9806C32.558 40.5841 31.8407 42.0261 30.6728 42.2176Z" fill="#3E0A77"/>
<path id="Vector_3" d="M0.788553 44.9814C-0.360554 45.1691 -1.51718 44.0351 -1.77629 42.4316C-2.0354 40.8281 -1.31439 39.3861 -0.15026 39.1945C0.998848 39.0068 2.15546 40.1408 2.41457 41.7443C2.6812 43.3328 1.95644 44.7861 0.788553 44.9814Z" fill="#3E0A77"/>
<path id="Vector_4" d="M51.4996 83.5479C53.073 80.1268 51.3231 76.0073 50.0388 72.7102L50.3993 72.1244C50.4669 72.0155 50.5157 71.9066 50.527 71.7939C51.0114 71.501 51.4808 71.1818 51.9164 70.795C57.0048 66.2549 53.595 57.8957 52.322 52.4319C50.527 44.6585 48.732 36.8813 46.9257 29.1005C45.4386 22.6264 44.2745 15.7092 40.8685 9.90737C37.5 4.1731 32.1074 1.2027 25.6109 0.380298C22.111 -0.0553113 18.581 0.00476902 15.0699 0.00101377C11.7765 -0.00649674 8.49067 0.0235435 5.20107 0.233838C-1.90011 0.665692 -9.08015 1.88615 -15.4866 5.11191C-21.3786 8.09358 -27.049 12.9641 -28.4385 19.6447C-28.4422 19.6748 -28.461 19.7048 -28.4648 19.7348C-28.4873 19.8738 -28.5023 20.0165 -28.5249 20.1554C-28.5511 20.3207 -28.5887 20.4822 -28.615 20.6474C-28.6187 20.6774 -28.6075 20.7112 -28.6 20.7488C-29.3135 25.886 -28.9867 31.0081 -28.292 36.1491C-27.4771 42.135 -26.5083 48.1133 -25.3967 54.0354C-24.3152 59.8823 -23.0159 65.6954 -21.1984 71.3583C-19.4672 76.7396 -17.4131 82.241 -14.1197 86.8675C-10.4658 91.9897 -5.47136 94.7122 0.702275 95.2267C0.92759 96.4434 1.15666 97.6488 1.38573 98.8543C1.9002 101.599 2.13678 104.694 3.95432 106.954C4.27728 107.367 4.97575 107.247 5.23111 106.83C6.36144 104.942 7.48802 103.068 8.61084 101.19C10.7776 102.857 12.7754 104.694 14.6192 106.71C14.6455 106.74 14.6756 106.744 14.7019 106.774C14.7281 106.804 14.7695 106.815 14.7957 106.845L14.9272 106.928C15.1187 107.014 15.344 107.018 15.5994 106.872C16.4894 106.338 16.3166 105.141 16.1664 104.273C15.881 102.64 15.314 101.044 14.7582 99.4739C14.1949 97.8967 13.5865 96.3383 12.9632 94.7836C22.8132 93.8861 32.4717 92.0648 41.9988 89.4023C45.5475 88.4072 49.8323 87.2017 51.4996 83.5479ZM46.3586 79.0904C30.0571 82.3237 13.7518 85.5832 -2.65492 88.2682C-2.82015 87.8927 -2.92906 87.4759 -2.94783 86.9915C-2.96285 86.646 -2.9253 86.2892 -2.86897 85.9475C13.4514 82.4363 29.8843 79.4359 46.3999 76.9724C46.3962 77.0025 46.3887 77.04 46.3774 77.0813C46.2835 77.7535 46.276 78.4332 46.3586 79.0904ZM46.7755 80.6563C46.8769 80.8854 46.9858 81.1032 47.1172 81.336C35.0215 84.2539 22.832 86.8262 10.5748 89.0418C10.3871 88.6062 10.1993 88.1706 10.0115 87.7387C22.295 85.5269 34.5371 83.0897 46.7755 80.6563ZM-0.247804 90.2059C-0.672148 90.082 -1.05893 89.9205 -1.40442 89.6915C-1.0702 89.6389 -0.724716 89.5788 -0.371722 89.5225C-0.326659 89.7478 -0.289112 89.9844 -0.247804 90.2059ZM-2.18552 84.1525C-1.9602 83.7582 -1.70109 83.3864 -1.40067 83.0709C1.02522 80.5361 5.15976 80.2094 8.41181 79.6424C16.4255 78.2229 24.4618 76.8935 32.498 75.6393C36.3509 75.0309 40.2188 74.524 44.0454 73.8856C45.356 73.6603 46.7041 73.3937 47.9922 72.9543C47.5528 73.7166 47.1548 74.4902 46.8506 75.3051C46.7943 75.3013 46.7229 75.2901 46.6591 75.2938C30.2899 77.7423 14.0071 80.6976 -2.18552 84.1525ZM-12.7979 85.9324C-16.0311 81.4074 -18.0364 75.9773 -19.7038 70.7124C-22.9934 60.3779 -24.6307 49.5853 -26.268 38.8829C-27.203 32.7468 -27.9203 26.5319 -26.9289 20.3507C-25.8361 13.61 -19.6324 8.84088 -13.8043 6.10706C-7.8935 3.31691 -1.31054 2.24663 5.16352 1.85609C11.6714 1.45427 18.5097 1.22519 25.0025 1.93869C28.6526 2.32924 32.2915 3.35444 35.2131 5.66768C37.7328 7.67298 39.4978 10.4331 40.8159 13.3547C43.6999 19.7799 44.8002 27.0501 46.3774 33.8696C48.1199 41.4289 49.8773 48.9995 51.6198 56.5589C52.352 59.7133 53.595 63.3483 52.6975 66.5816C51.7099 70.1378 48.1424 71.4372 44.8753 72.0831C37.47 73.5739 29.8768 74.3851 22.4189 75.6168C18.1454 76.3153 13.8682 77.04 9.59847 77.7873C6.13988 78.3957 2.23817 78.7111 -0.814851 80.585C-2.39957 81.5538 -3.65382 83.0484 -4.22837 84.7758C-4.31099 84.9073 -4.36356 85.0425 -4.36356 85.1927C-4.52503 85.8236 -4.6039 86.4732 -4.56634 87.1491C-4.42364 89.8792 -2.41459 91.4527 0.0676359 91.9146C0.180293 92.4704 0.285443 93.0186 0.386835 93.5706C-5.09959 93.0073 -9.51953 90.5326 -12.7979 85.9324ZM12.8317 98.8805C13.3725 100.368 13.9095 101.87 14.3113 103.391C14.3902 103.684 14.4615 103.984 14.5291 104.269C12.7454 102.474 10.849 100.818 8.81362 99.3086C8.47189 99.0533 7.90861 99.2223 7.70958 99.5715C6.64684 101.348 5.58035 103.109 4.52137 104.874C4.08201 104.01 3.83415 103.053 3.64639 102.103C3.34222 100.623 3.07184 99.1359 2.80146 97.6488C2.27572 94.8474 1.74998 92.0498 1.21298 89.2408C3.61259 88.8465 6.00844 88.4372 8.40805 88.0166C8.40805 88.0617 8.4118 88.1105 8.43058 88.1518C9.97399 91.6968 11.5099 95.253 12.8317 98.8805ZM38.39 88.7301C29.8656 91.0058 21.1346 92.4703 12.3548 93.2364C11.9906 92.3464 11.6113 91.4564 11.232 90.5702C23.7746 88.2907 36.257 85.6545 48.6493 82.6278C49.3065 82.4701 49.3741 81.7679 49.0699 81.3511C49.0361 81.2534 48.9986 81.1708 48.9122 81.0882C47.9621 80.0179 47.7443 78.4707 48.0109 77.1001C48.1912 76.165 48.5592 75.2938 48.9986 74.4564C50.1514 77.4005 51.4207 81.0393 49.5656 83.7093C47.2486 87.0252 42.0251 87.7612 38.39 88.7301Z" fill="#3E0A77"/>
<path id="Vector_5" d="M47.1171 81.3361C35.0215 84.2539 22.8319 86.8262 10.5748 89.0418C10.387 88.6062 10.1993 88.1706 10.0115 87.7388C22.2949 85.5269 34.5371 83.0935 46.7792 80.6601C46.8768 80.8854 46.9857 81.1032 47.1171 81.3361Z" fill="white"/>
<path id="Vector_6" d="M49.5616 83.7093C47.2484 87.0252 42.0248 87.7612 38.3898 88.7301C29.8653 91.0057 21.1344 92.4703 12.3546 93.2364C11.9903 92.3464 11.6111 91.4564 11.2318 90.5701C23.7743 88.2907 36.2568 85.6545 48.6491 82.6278C49.3063 82.4701 49.3739 81.7679 49.0697 81.351C49.0359 81.2534 48.9984 81.1707 48.912 81.0881C47.9619 80.0179 47.7441 78.4707 48.0107 77.1001C48.191 76.165 48.559 75.2938 48.9983 74.4564C50.1475 77.4005 51.4205 81.0356 49.5616 83.7093Z" fill="#FBBE07"/>
<path id="Vector_7" d="M46.3586 79.0903C30.0571 82.3236 13.7518 85.5832 -2.65494 88.2682C-2.82017 87.8926 -2.92907 87.4758 -2.94785 86.9914C-2.96287 86.6459 -2.92532 86.2892 -2.86899 85.9474C13.4513 82.4363 29.8843 79.4358 46.3999 76.9724C46.3962 77.0024 46.3887 77.04 46.3774 77.0813C46.2835 77.7535 46.276 78.4332 46.3586 79.0903Z" fill="white"/>
<path id="Vector_8" d="M46.8466 75.305C46.7903 75.3013 46.7189 75.29 46.6551 75.2938C30.2897 77.7422 14.0032 80.6976 -2.18948 84.1487C-1.96417 83.7544 -1.70505 83.3826 -1.40463 83.0672C1.02127 80.5324 5.15579 80.2057 8.40784 79.6386C16.4215 78.2191 24.4578 76.8898 32.494 75.6355C36.3469 75.0271 40.2148 74.5202 44.0414 73.8818C45.352 73.6565 46.7001 73.3899 47.9882 72.9505C47.5526 73.7204 47.1508 74.4901 46.8466 75.305Z" fill="white"/>
<path id="Vector_9" d="M18.9977 51.14C18.0664 51.9624 16.8535 51.9324 15.9372 51.125C15.5091 50.757 15.1861 50.2688 14.8857 49.7956C14.5965 49.375 14.3412 48.9281 14.1084 48.4663C13.6277 47.5162 13.2484 46.5098 12.9818 45.4808C12.7227 44.4707 14.2961 44.0876 14.5553 45.0978C14.8256 46.1605 15.2162 47.1594 15.7419 48.1058C15.986 48.5451 16.2526 48.9808 16.5455 49.3901C16.7784 49.7018 17.1351 50.2087 17.5369 50.1524C17.7885 50.111 18.0626 49.837 18.2091 49.5328C18.4494 49.0408 18.487 48.44 18.5396 47.9105C18.6447 46.7764 18.6372 45.631 18.487 44.4895C18.4307 44.0614 18.6335 43.637 19.0841 43.5206C19.4859 43.4342 20.0116 43.6971 20.0642 44.1252C20.2257 45.3945 20.2745 46.6712 20.1581 47.9518C20.0454 49.0671 19.8915 50.3551 18.9977 51.14Z" fill="#3E0A77"/>
<path id="Vector_10" d="M26.6735 20.8051C26.4482 18.1577 26.1966 15.2849 25.4568 12.7313C24.7132 10.1627 22.768 9.49807 20.267 9.58444C13.6615 9.85106 7.13865 11.1391 0.679611 12.5285L0.668346 12.521C0.525646 12.5548 0.382942 12.5886 0.228976 12.6149C0.0524793 12.6562 -0.0676838 12.7501 -0.176586 12.8515C-1.99413 13.7828 -2.23822 15.7318 -2.03544 17.846C-1.79135 20.4596 -1.183 23.0057 -0.236672 25.4429C0.0900355 26.2953 0.405473 27.4331 1.27294 27.8763C2.2831 28.4057 3.75892 27.9626 4.83668 27.835C7.88594 27.4932 10.9239 27.0538 13.9432 26.5394C16.9586 26.0099 19.9628 25.3978 22.9595 24.703C23.9134 24.4852 25.0324 24.3238 25.806 23.6591C26.6847 22.9081 26.7711 21.8829 26.6735 20.8051ZM24.1687 22.7278C22.0921 23.5314 19.6587 23.813 17.4806 24.2336C13.0081 25.1274 8.49805 25.8184 3.98048 26.3178C3.43973 26.3817 2.58728 26.6295 2.0991 26.3629C1.59214 26.0963 1.43067 25.3002 1.23539 24.7819C0.807294 23.6967 0.465562 22.5776 0.198939 21.4548C-0.281733 19.472 -1.64113 14.868 1.04387 14.1057C5.33612 13.1782 9.65467 12.3107 14.0258 11.7474C16.2977 11.4583 18.6335 11.1954 20.9354 11.1841C22.3925 11.1841 23.4515 11.6386 23.8871 13.1069C24.1725 14.102 24.2889 15.1459 24.4466 16.1711C24.6156 17.2038 24.7508 18.244 24.886 19.2842C25.0362 20.4784 25.5657 22.1871 24.1687 22.7278Z" fill="#3E0A77"/>
<path id="Vector_11" d="M24.1687 22.7278C22.092 23.5314 19.6586 23.813 17.4806 24.2336C13.0081 25.1274 8.49804 25.8184 3.98047 26.3178C3.43971 26.3817 2.58727 26.6295 2.09908 26.3629C1.59212 26.0963 1.43065 25.3002 1.23538 24.7819C0.807281 23.6967 0.46555 22.5776 0.198927 21.4548C-0.281746 19.472 -1.64115 14.868 1.04386 14.1057C5.33611 13.1782 9.65465 12.3107 14.0258 11.7474C16.2977 11.4583 18.6335 11.1954 20.9354 11.1841C22.3925 11.1841 23.4514 11.6386 23.8871 13.1069C24.1725 14.102 24.2889 15.1459 24.4466 16.1711C24.6156 17.2038 24.7508 18.244 24.886 19.2842C25.0362 20.4784 25.5657 22.1871 24.1687 22.7278Z" fill="#3E0A77"/>
</g>
<path id="Vector_12" d="M48.1197 36.6823C47.6766 31.7742 43.865 25.563 38.6527 24.5003C32.7532 22.8254 26.0727 24.4777 22.2798 29.4797C20.5524 31.7629 19.6399 34.5568 19.4822 37.4071C16.9136 36.9302 14.2436 37.0541 11.7351 37.7939C10.1617 34.1288 7.15744 30.7377 3.43223 29.9792C-2.46727 28.3043 -9.14785 29.9566 -12.9407 34.9586C-16.7109 39.9344 -16.6321 47.3472 -13.2073 52.4769C-9.72993 57.6779 -2.7076 60.3855 3.21067 57.877C9.18528 55.3459 13.4851 48.6916 12.8955 42.1612C12.8129 41.2412 12.6101 40.2761 12.3059 39.311C14.6379 38.6613 17.0939 38.5675 19.4709 39.0594C19.6024 41.8833 20.4586 44.6772 22.0132 47.0017C25.4906 52.2027 32.5129 54.9103 38.4312 52.4018C44.4095 49.8707 48.7093 43.2164 48.1197 36.6823ZM4.91932 55.0755C0.0374928 58.4778 -6.56049 57.554 -10.5861 53.2092C-14.3789 49.1159 -15.2727 42.548 -12.6966 37.5911C-9.75245 31.9282 -2.93667 29.8515 2.97785 31.5301C6.72935 32.2962 9.46693 36.1979 10.6686 39.5438C12.734 45.2856 9.71853 51.7333 4.91932 55.0755ZM40.1398 49.6004C35.258 53.0026 28.66 52.0789 24.6344 47.734C20.8416 43.6408 19.9478 37.0729 22.5239 32.1159C25.4681 26.453 32.2838 24.3764 38.1984 26.055C41.9499 26.821 44.6874 30.7227 45.8891 34.0687C47.9545 39.8104 44.9391 46.2582 40.1398 49.6004Z" fill="#FB0798"/>
</g>
</g>
</svg>
